<svg xmlns="http://www.w3.org/2000/svg" xmlns:xlink="http://www.w3.org/1999/xlink" width="1920" zoomAndPan="magnify" viewBox="0 0 1440 1439.999935" height="1920" preserveAspectRatio="xMidYMid meet" version="1.2"><defs><clipPath id="052866f0b1"><path d="M 1110 1038 L 1432.71875 1038 L 1432.71875 1259 L 1110 1259 Z M 1110 1038 "/></clipPath><clipPath id="b5cc04e268"><path d="M 1160 224.308594 L 1385 224.308594 L 1385 743 L 1160 743 Z M 1160 224.308594 "/></clipPath></defs><g id="6fa27a664d"><path style=" stroke:none;fill-rule:nonzero;fill:#000000;fill-opacity:1;" d="M 161.25 674.351562 C 160.6875 674.117188 160.128906 673.867188 159.5625 673.640625 L 157.8125 673.113281 L 156.0625 672.5625 L 154.386719 671.785156 L 153.859375 671.542969 L 154.445312 671.605469 C 162.464844 672.457031 170.304688 674.996094 177.289062 679.085938 C 184.3125 683.136719 190.488281 688.449219 196.472656 693.8125 C 202.464844 699.175781 208.402344 704.59375 215.066406 708.925781 C 216.777344 709.929688 218.449219 711.003906 220.179688 711.957031 L 225.546875 714.460938 C 227.402344 715.125 229.289062 715.703125 231.152344 716.332031 C 232.074219 716.6875 233.054688 716.832031 234.019531 717.019531 L 236.921875 717.574219 C 244.640625 718.773438 252.785156 718.585938 260.804688 718.902344 C 264.828125 719.035156 268.867188 719.429688 272.898438 719.679688 C 276.945312 719.921875 280.953125 720.335938 284.964844 720.742188 C 301.011719 722.28125 316.957031 724.511719 332.910156 725.910156 C 336.894531 726.371094 340.882812 726.554688 344.871094 726.847656 L 350.851562 727.25 L 356.828125 727.390625 L 362.804688 727.515625 L 365.792969 727.574219 L 368.714844 727.4375 C 372.800781 727.359375 376.59375 726.808594 380.441406 726.308594 C 396.011719 723.761719 410.851562 717.78125 425.996094 712.207031 C 433.585938 709.441406 441.324219 706.832031 449.300781 704.894531 C 451.3125 704.457031 453.292969 703.917969 455.324219 703.566406 L 461.429688 702.542969 C 465.542969 702.109375 469.664062 701.636719 473.820312 701.679688 L 476.933594 701.625 L 480.007812 701.742188 C 482.027344 701.839844 484.003906 701.863281 486.054688 702.023438 L 492.191406 702.480469 L 498.257812 703.09375 C 506.328125 703.980469 514.328125 705.136719 522.277344 706.28125 C 538.148438 708.519531 553.960938 710.625 569.601562 709.535156 C 577.398438 709.003906 585.164062 707.976562 592.710938 705.957031 L 616.082031 699.992188 C 647.40625 692.246094 679.054688 685.601562 710.941406 680.5625 C 742.867188 675.699219 775.042969 672.34375 807.351562 670.859375 C 839.71875 669.316406 872.007812 671.117188 904.230469 673.664062 L 928.265625 675.683594 L 952.238281 677.40625 C 956.234375 677.730469 960.179688 677.910156 964.230469 678.101562 C 968.226562 678.25 972.15625 678.410156 976.128906 678.425781 C 984.066406 678.554688 991.960938 678.289062 999.761719 677.507812 C 1007.558594 676.722656 1015.253906 675.359375 1022.738281 673.246094 C 1030.214844 671.117188 1037.449219 668.171875 1044.417969 664.648438 C 1058.449219 657.746094 1070.921875 647.804688 1083.964844 638.292969 C 1096.824219 628.726562 1109.789062 619.027344 1123.273438 610.03125 C 1129.941406 605.421875 1136.953125 601.277344 1143.890625 597.046875 C 1151.046875 593.160156 1158.117188 589.105469 1165.574219 585.785156 C 1172.933594 582.164062 1180.332031 579.15625 1187.679688 575.894531 C 1195.03125 572.6875 1202.285156 569.378906 1209.34375 565.796875 C 1216.390625 562.203125 1223.203125 558.246094 1229.554688 553.679688 C 1235.914062 549.121094 1241.800781 543.941406 1247.15625 538.230469 C 1252.496094 532.550781 1257.34375 526.144531 1261.570312 519.703125 L 1264.757812 514.585938 L 1267.339844 509.472656 C 1268.273438 507.816406 1268.910156 505.960938 1269.648438 504.167969 C 1270.367188 502.363281 1271.148438 500.582031 1271.640625 498.695312 C 1274.132812 491.332031 1275.351562 483.566406 1275.792969 475.765625 C 1276.210938 467.953125 1275.851562 460.058594 1274.746094 452.21875 C 1270.542969 420.726562 1257.800781 390.609375 1252.703125 358.445312 C 1251.386719 350.421875 1250.765625 342.25 1250.847656 334.089844 C 1250.8125 330.003906 1251.246094 325.925781 1251.625 321.855469 L 1252.605469 315.796875 C 1252.898438 313.773438 1253.53125 311.808594 1253.972656 309.816406 C 1256.070312 301.921875 1258.976562 294.191406 1263.121094 287.152344 L 1264.613281 284.445312 L 1266.246094 281.90625 C 1267.363281 280.222656 1268.347656 278.496094 1269.578125 276.855469 L 1273.195312 271.917969 C 1274.449219 270.3125 1275.789062 268.789062 1277.085938 267.222656 C 1282.414062 261.09375 1288.394531 255.523438 1294.96875 250.765625 C 1301.539062 245.992188 1308.761719 242.171875 1316.25 239.140625 C 1323.761719 236.148438 1331.558594 233.910156 1339.480469 232.441406 C 1347.410156 230.988281 1355.429688 230.152344 1363.457031 229.726562 C 1355.441406 230.367188 1347.460938 231.417969 1339.613281 233.074219 C 1331.761719 234.75 1324.089844 237.179688 1316.75 240.332031 C 1309.417969 243.5 1302.382812 247.382812 1296.027344 252.207031 C 1289.664062 257.007812 1283.914062 262.582031 1278.8125 268.6875 C 1277.578125 270.246094 1276.289062 271.769531 1275.101562 273.355469 L 1271.683594 278.21875 C 1270.527344 279.820312 1269.550781 281.613281 1268.472656 283.300781 L 1266.894531 285.871094 L 1265.53125 288.472656 C 1261.636719 295.390625 1258.984375 302.925781 1257.113281 310.582031 C 1256.722656 312.519531 1256.148438 314.417969 1255.910156 316.382812 L 1255.074219 322.25 C 1254.789062 326.195312 1254.445312 330.132812 1254.5625 334.097656 C 1254.640625 342.011719 1255.398438 349.933594 1256.84375 357.757812 C 1262.253906 389.1875 1275.308594 419.058594 1280.101562 451.472656 C 1281.34375 459.546875 1281.835938 467.796875 1281.488281 476.042969 C 1281.128906 484.277344 1279.929688 492.578125 1277.363281 500.496094 C 1276.855469 502.515625 1276.050781 504.4375 1275.304688 506.378906 C 1274.535156 508.316406 1273.875 510.277344 1272.867188 512.15625 L 1270.058594 517.835938 L 1266.929688 522.992188 L 1266.152344 524.28125 L 1265.757812 524.925781 C 1265.714844 525.011719 1265.476562 525.355469 1265.472656 525.359375 L 1265.25 525.675781 L 1263.488281 528.191406 C 1262.289062 529.859375 1261.179688 531.585938 1259.875 533.175781 L 1256.0625 538.027344 L 1252 542.691406 C 1246.429688 548.777344 1240.253906 554.347656 1233.601562 559.238281 C 1226.953125 564.144531 1219.867188 568.371094 1212.632812 572.167969 C 1198.195312 579.785156 1183.019531 585.554688 1168.746094 592.488281 C 1161.507812 595.742188 1154.632812 599.730469 1147.667969 603.542969 C 1140.898438 607.714844 1134.070312 611.785156 1127.519531 616.347656 C 1114.277344 625.257812 1101.511719 634.890625 1088.601562 644.574219 L 1078.917969 651.777344 C 1075.679688 654.148438 1072.496094 656.597656 1069.09375 658.929688 C 1062.433594 663.6875 1055.414062 668.027344 1048.042969 671.78125 C 1040.6875 675.542969 1032.96875 678.722656 1024.984375 681.03125 C 1016.992188 683.328125 1008.800781 684.804688 1000.609375 685.660156 C 992.410156 686.515625 984.203125 686.820312 976.0625 686.71875 C 971.996094 686.71875 967.882812 686.566406 963.851562 686.433594 C 959.867188 686.261719 955.777344 686.09375 951.753906 685.785156 L 927.597656 684.148438 L 903.546875 682.21875 C 871.675781 679.589844 839.625 677.65625 807.679688 679.0625 C 775.710938 680.40625 743.828125 683.597656 712.136719 688.292969 C 680.457031 693.171875 649.070312 699.628906 617.917969 707.199219 L 594.523438 713.070312 C 586.503906 715.167969 578.25 716.253906 570.015625 716.753906 C 553.46875 717.691406 537.191406 715.28125 521.300781 712.855469 C 513.347656 711.609375 505.441406 710.371094 497.539062 709.40625 L 491.613281 708.734375 L 485.730469 708.21875 C 483.773438 708.039062 481.726562 707.988281 479.734375 707.867188 L 476.78125 707.71875 L 473.863281 707.742188 C 458.226562 707.53125 442.890625 712.101562 427.84375 717.359375 C 412.792969 722.6875 397.503906 728.671875 381.195312 731.144531 C 377.066406 731.644531 372.878906 732.15625 368.914062 732.179688 L 365.8125 732.285156 L 362.769531 732.1875 L 356.691406 731.988281 L 350.613281 731.773438 L 344.5625 731.285156 C 340.535156 730.941406 336.488281 730.703125 332.488281 730.195312 C 316.425781 728.476562 300.542969 725.925781 284.605469 724.078125 C 280.625 723.59375 276.640625 723.101562 272.664062 722.789062 C 268.679688 722.457031 264.71875 721.988281 260.707031 721.777344 C 252.691406 721.296875 244.644531 721.351562 236.5 719.9375 L 233.492188 719.296875 C 232.488281 719.082031 231.476562 718.910156 230.523438 718.519531 C 228.589844 717.832031 226.640625 717.1875 224.730469 716.460938 L 219.21875 713.75 C 217.449219 712.734375 215.75 711.597656 214.015625 710.53125 C 207.265625 705.945312 201.382812 700.351562 195.507812 694.882812 C 189.632812 689.417969 183.703125 683.976562 176.871094 679.808594 C 170.085938 675.59375 162.40625 672.867188 154.433594 671.800781 L 154.496094 671.621094 L 156.125 672.425781 L 157.851562 673.023438 L 159.589844 673.601562 C 160.140625 673.839844 160.695312 674.101562 161.25 674.351562 Z M 161.25 674.351562 "/><path style=" stroke:none;fill-rule:nonzero;fill:#000000;fill-opacity:1;" d="M 70.417969 878.996094 C 70.417969 878.996094 72.875 880.886719 77.042969 884.320312 C 79.117188 886.035156 81.640625 888.125 84.53125 890.515625 C 87.433594 892.863281 90.699219 895.515625 94.351562 898.183594 C 97.980469 900.890625 102.089844 903.484375 106.558594 905.824219 C 111.023438 908.1875 115.996094 909.980469 121.28125 911.203125 C 126.566406 912.449219 132.195312 912.992188 137.988281 912.988281 C 140.867188 913.128906 143.816406 912.816406 146.753906 912.707031 L 147.164062 912.683594 L 147.234375 912.679688 C 147.1875 912.6875 147.441406 912.664062 147.144531 912.691406 L 147.714844 912.625 L 148.855469 912.484375 L 151.144531 912.203125 C 152.652344 912.003906 154.242188 911.871094 155.625 911.554688 C 161.261719 910.671875 167.304688 909.261719 173.246094 907.976562 C 179.253906 906.714844 185.355469 905.6875 191.414062 905.46875 C 192.925781 905.421875 194.410156 905.273438 195.898438 905.316406 C 197.386719 905.378906 198.859375 905.464844 200.3125 905.570312 C 201.039062 905.617188 201.761719 905.667969 202.480469 905.714844 L 203.015625 905.753906 L 203.148438 905.761719 C 203.449219 905.789062 203.304688 905.78125 203.40625 905.792969 L 203.65625 905.835938 L 204.667969 906 C 205.964844 906.175781 207.40625 906.488281 208.824219 906.816406 C 214.28125 908.082031 218.886719 909.8125 223.238281 910.976562 C 227.558594 912.132812 231.515625 912.847656 234.988281 912.621094 C 235.859375 912.578125 236.707031 912.519531 237.480469 912.300781 C 238.257812 912.09375 239.074219 912.035156 239.753906 911.710938 C 240.464844 911.4375 241.148438 911.171875 241.800781 910.921875 C 242.40625 910.558594 242.988281 910.210938 243.535156 909.882812 C 245.671875 908.460938 247.246094 907.015625 248.144531 905.910156 C 249.117188 904.835938 249.636719 904.261719 249.636719 904.261719 C 249.636719 904.261719 249.253906 904.9375 248.539062 906.203125 C 248.15625 906.820312 247.78125 907.667969 247.0625 908.46875 C 246.355469 909.265625 245.714844 910.386719 244.578125 911.230469 C 242.613281 913.257812 239.398438 915.027344 235.453125 915.875 C 231.496094 916.738281 226.914062 916.558594 222.226562 915.808594 C 217.539062 915.125 212.570312 913.894531 207.652344 913.125 C 206.472656 912.953125 205.28125 912.777344 203.875 912.695312 L 202.859375 912.617188 L 202.605469 912.59375 C 202.617188 912.597656 202.390625 912.574219 202.605469 912.601562 L 202.480469 912.605469 L 201.988281 912.613281 C 201.335938 912.625 200.679688 912.636719 200.015625 912.648438 C 198.695312 912.679688 197.367188 912.6875 196.023438 912.675781 C 194.679688 912.703125 193.320312 912.914062 191.953125 913.023438 C 186.480469 913.417969 180.867188 914.855469 175.042969 916.082031 C 169.167969 917.4375 163.257812 918.972656 156.75 920.070312 C 155.117188 920.390625 153.636719 920.484375 152.097656 920.664062 L 148.664062 921.027344 L 148.09375 921.089844 L 147.335938 921.125 C 144.152344 921.203125 141.003906 921.472656 137.832031 921.277344 C 131.511719 921.238281 125.238281 920.144531 119.375 918.507812 C 116.421875 917.734375 113.621094 916.613281 110.921875 915.472656 C 108.289062 914.167969 105.730469 912.898438 103.40625 911.386719 C 98.691406 908.488281 94.660156 905.210938 91.234375 901.984375 C 87.726562 898.828125 84.835938 895.667969 82.277344 892.890625 C 79.726562 890.105469 77.601562 887.597656 75.851562 885.539062 C 72.355469 881.414062 70.417969 878.996094 70.417969 878.996094 Z M 70.417969 878.996094 "/><path style=" stroke:none;fill-rule:nonzero;fill:#000000;fill-opacity:1;" d="M 14.753906 1268.035156 C 14.753906 1268.035156 16.3125 1269.867188 19.230469 1273.304688 C 20.742188 1274.972656 22.808594 1276.828125 25.160156 1279.035156 C 26.453125 1280.007812 27.839844 1281.054688 29.320312 1282.171875 C 30.027344 1282.773438 30.859375 1283.238281 31.710938 1283.726562 C 32.558594 1284.21875 33.425781 1284.730469 34.320312 1285.25 C 34.769531 1285.503906 35.207031 1285.796875 35.683594 1286.023438 C 36.175781 1286.226562 36.667969 1286.433594 37.171875 1286.640625 C 38.171875 1287.0625 39.195312 1287.492188 40.246094 1287.929688 C 41.273438 1288.417969 42.449219 1288.578125 43.578125 1288.929688 C 44.734375 1289.199219 45.867188 1289.644531 47.101562 1289.789062 C 51.972656 1290.640625 57.34375 1290.71875 62.996094 1289.945312 C 68.628906 1289.003906 74.5 1287.324219 80.441406 1284.84375 C 86.347656 1282.273438 92.378906 1279.136719 98.425781 1275.402344 C 110.46875 1267.820312 122.609375 1258.160156 134.941406 1247.316406 C 147.320312 1236.5 159.675781 1224.292969 173.167969 1212.132812 C 176.558594 1209.101562 180.007812 1206.058594 183.679688 1203.121094 L 185.058594 1202.023438 L 185.75 1201.472656 L 186.097656 1201.195312 L 186.5625 1200.855469 L 189.382812 1198.863281 C 191.261719 1197.53125 193.148438 1196.191406 195.042969 1194.851562 C 196.886719 1193.480469 198.914062 1192.21875 200.964844 1190.96875 C 203 1189.707031 205.039062 1188.445312 207.089844 1187.175781 C 211.1875 1184.648438 215.363281 1182.488281 219.523438 1180.113281 C 236.234375 1170.996094 253.324219 1162.457031 268.433594 1151.261719 L 273.996094 1146.96875 L 276.78125 1144.824219 L 277.476562 1144.292969 L 277.652344 1144.15625 C 277.628906 1144.179688 277.742188 1144.078125 277.785156 1144.042969 L 278.125 1143.75 L 279.488281 1142.570312 C 283.109375 1139.421875 286.796875 1136.3125 290.304688 1133.125 C 297.398438 1126.832031 304.441406 1120.324219 311.644531 1114.085938 C 315.179688 1110.90625 318.902344 1107.902344 322.539062 1104.859375 C 326.164062 1101.804688 330.085938 1099.082031 333.808594 1096.203125 C 337.640625 1093.445312 341.632812 1090.917969 345.503906 1088.308594 C 347.546875 1087.148438 349.582031 1086 351.609375 1084.851562 L 354.648438 1083.132812 L 356.160156 1082.28125 L 356.351562 1082.175781 L 356.65625 1082.023438 L 357.042969 1081.84375 L 357.804688 1081.484375 C 359.847656 1080.53125 361.824219 1079.550781 364.117188 1078.710938 C 365.222656 1078.285156 366.328125 1077.820312 367.425781 1077.433594 L 370.703125 1076.359375 C 375.066406 1074.941406 379.457031 1073.902344 383.789062 1073.003906 C 392.46875 1071.257812 400.921875 1070.15625 409.003906 1068.8125 C 417.085938 1067.5 424.773438 1065.820312 431.90625 1063.375 C 433.695312 1062.78125 435.453125 1062.152344 437.136719 1061.398438 C 437.988281 1061.039062 438.839844 1060.6875 439.683594 1060.332031 C 440.519531 1059.929688 441.351562 1059.523438 442.183594 1059.121094 C 445.644531 1057.511719 448.675781 1055.824219 452.070312 1054.191406 C 453.671875 1053.324219 455.554688 1052.664062 457.363281 1052 C 458.304688 1051.734375 459.300781 1051.597656 460.257812 1051.40625 C 461.230469 1051.167969 462.179688 1051.160156 463.117188 1051.175781 C 464.058594 1051.179688 464.996094 1051.179688 465.925781 1051.183594 C 466.808594 1051.300781 467.683594 1051.414062 468.558594 1051.53125 C 469.429688 1051.648438 470.296875 1051.761719 471.152344 1051.878906 C 471.984375 1052.058594 472.804688 1052.234375 473.621094 1052.410156 C 475.253906 1052.769531 476.867188 1053.128906 478.460938 1053.480469 C 480.015625 1053.875 481.539062 1054.234375 483.066406 1054.664062 C 486.121094 1055.484375 489.039062 1056.332031 491.855469 1057.234375 C 503.125 1060.785156 512.625 1064.882812 520.046875 1069 C 527.507812 1073.066406 532.65625 1077.449219 535.777344 1080.714844 C 536.535156 1081.558594 537.203125 1082.300781 537.78125 1082.945312 C 538.289062 1083.640625 538.714844 1084.230469 539.058594 1084.703125 C 539.734375 1085.648438 540.085938 1086.136719 540.085938 1086.136719 C 540.085938 1086.136719 539.703125 1085.671875 538.960938 1084.773438 C 538.589844 1084.328125 538.128906 1083.773438 537.582031 1083.117188 C 536.96875 1082.519531 536.253906 1081.828125 535.449219 1081.046875 C 532.164062 1077.992188 526.773438 1074.152344 519.273438 1070.476562 C 511.777344 1066.800781 502.226562 1063.242188 490.96875 1060.308594 C 488.160156 1059.558594 485.226562 1058.863281 482.230469 1058.222656 C 480.742188 1057.882812 479.175781 1057.589844 477.609375 1057.277344 C 476.058594 1057.015625 474.488281 1056.753906 472.894531 1056.484375 C 472.097656 1056.351562 471.296875 1056.222656 470.488281 1056.089844 C 469.695312 1056.015625 468.894531 1055.941406 468.09375 1055.863281 C 467.289062 1055.789062 466.484375 1055.710938 465.671875 1055.632812 C 464.898438 1055.660156 464.117188 1055.6875 463.332031 1055.71875 C 462.546875 1055.726562 461.757812 1055.753906 461.03125 1055.984375 C 460.289062 1056.175781 459.535156 1056.285156 458.789062 1056.519531 C 457.3125 1057.148438 455.832031 1057.691406 454.28125 1058.601562 C 451.226562 1060.203125 447.878906 1062.210938 444.59375 1063.882812 C 443.75 1064.328125 442.898438 1064.777344 442.046875 1065.226562 C 441.160156 1065.636719 440.269531 1066.050781 439.371094 1066.464844 C 437.59375 1067.339844 435.75 1068.074219 433.871094 1068.78125 C 426.375 1071.644531 418.328125 1073.558594 410.144531 1075.121094 C 393.796875 1078.273438 376.589844 1080.382812 361.074219 1088.308594 L 360.316406 1088.679688 L 359.933594 1088.863281 C 359.769531 1088.949219 359.945312 1088.855469 359.863281 1088.90625 L 359.6875 1089.011719 L 358.261719 1089.847656 L 355.402344 1091.527344 C 353.492188 1092.644531 351.574219 1093.769531 349.648438 1094.894531 C 345.976562 1097.46875 342.199219 1099.933594 338.546875 1102.652344 C 331.300781 1108.191406 324.152344 1114.082031 317.113281 1120.324219 C 310.039062 1126.523438 303.097656 1133.003906 295.886719 1139.464844 C 292.320312 1142.742188 288.6875 1145.835938 285.074219 1149.011719 L 283.714844 1150.195312 L 283.375 1150.492188 L 283.164062 1150.675781 L 282.980469 1150.816406 L 282.253906 1151.386719 L 279.339844 1153.660156 L 273.5 1158.199219 C 257.570312 1169.859375 240.019531 1178.472656 223.484375 1187.394531 C 219.414062 1189.683594 215.207031 1191.867188 211.289062 1194.214844 C 209.328125 1195.386719 207.371094 1196.554688 205.421875 1197.71875 C 203.464844 1198.863281 201.515625 1200.019531 199.609375 1201.390625 C 197.695312 1202.703125 195.789062 1204.007812 193.886719 1205.3125 L 191.039062 1207.261719 L 190.859375 1207.382812 C 190.699219 1207.5 190.882812 1207.363281 190.804688 1207.425781 L 190.472656 1207.683594 L 189.808594 1208.191406 L 188.488281 1209.210938 C 184.960938 1211.941406 181.542969 1214.863281 178.164062 1217.785156 C 164.730469 1229.621094 151.894531 1241.542969 139.097656 1252.167969 C 132.699219 1257.480469 126.382812 1262.5625 120.011719 1267.164062 C 113.628906 1271.75 107.265625 1275.933594 100.945312 1279.617188 C 94.566406 1283.21875 88.230469 1286.3125 81.941406 1288.671875 C 75.617188 1290.953125 69.355469 1292.414062 63.382812 1293.101562 C 57.375 1293.625 51.695312 1293.253906 46.613281 1292.09375 C 45.332031 1291.875 44.148438 1291.355469 42.953125 1291.011719 C 41.785156 1290.582031 40.574219 1290.34375 39.515625 1289.789062 C 38.445312 1289.273438 37.398438 1288.773438 36.378906 1288.289062 C 35.871094 1288.042969 35.367188 1287.800781 34.871094 1287.5625 C 34.386719 1287.304688 33.949219 1286.980469 33.492188 1286.695312 C 32.597656 1286.113281 31.726562 1285.542969 30.878906 1284.988281 C 30.03125 1284.4375 29.195312 1283.921875 28.503906 1283.265625 C 27.070312 1282.03125 25.722656 1280.871094 24.472656 1279.789062 C 22.21875 1277.375 20.261719 1275.359375 18.867188 1273.589844 C 16.183594 1269.964844 14.753906 1268.035156 14.753906 1268.035156 Z M 14.753906 1268.035156 "/><path style=" stroke:none;fill-rule:nonzero;fill:#000000;fill-opacity:1;" d="M 70.460938 878.996094 C 70.460938 878.996094 70.335938 878.203125 70.097656 876.714844 C 69.898438 875.234375 69.707031 872.960938 69.847656 870.105469 C 70.03125 867.261719 70.480469 863.796875 71.34375 859.941406 C 72.167969 856.070312 73.296875 851.785156 74.433594 847.1875 C 75.519531 842.585938 76.539062 837.625 76.734375 832.507812 C 76.84375 829.941406 76.8125 826.984375 76.855469 824.140625 C 76.914062 821.226562 77.085938 818.171875 77.355469 815.085938 C 77.882812 808.917969 79.171875 802.296875 81.75 796.039062 C 82.453125 794.507812 83.164062 792.972656 83.871094 791.429688 C 84.632812 789.921875 85.546875 788.523438 86.382812 787.058594 C 88 784.070312 90.085938 781.527344 91.96875 778.769531 C 92.242188 778.390625 92.375 778.191406 92.78125 777.675781 L 93.550781 776.753906 C 94.054688 776.144531 94.558594 775.539062 95.183594 774.875 C 96.386719 773.53125 97.554688 772.363281 98.714844 771.199219 C 101.0625 768.902344 103.421875 766.710938 105.742188 764.582031 C 110.332031 760.285156 114.984375 756.335938 118.773438 752.09375 C 120.734375 750.015625 122.324219 747.816406 123.734375 745.683594 L 124.695312 744.0625 L 125.4375 742.4375 L 125.53125 742.234375 L 125.554688 742.1875 C 125.535156 742.273438 125.640625 741.925781 125.511719 742.363281 L 125.550781 742.238281 L 125.699219 741.734375 L 126 740.730469 C 126.191406 740.066406 126.386719 739.40625 126.578125 738.753906 C 126.65625 737.65625 126.984375 736.660156 126.957031 735.503906 C 126.960938 734.351562 126.992188 733.214844 126.789062 732.085938 C 126.59375 729.824219 125.824219 727.625 125.074219 725.5 C 123.363281 721.277344 121.25 717.324219 119.789062 713.585938 C 119.023438 711.730469 118.453125 709.90625 118.007812 708.214844 C 117.691406 706.472656 117.335938 704.910156 117.328125 703.441406 C 117.300781 702.714844 117.203125 702.039062 117.242188 701.394531 C 117.300781 700.753906 117.351562 700.15625 117.398438 699.597656 C 117.457031 699.042969 117.476562 698.53125 117.554688 698.070312 C 117.660156 697.613281 117.757812 697.199219 117.84375 696.824219 C 118.203125 695.355469 118.390625 694.574219 118.390625 694.574219 C 118.390625 694.574219 118.371094 695.378906 118.332031 696.882812 C 118.320312 697.25 118.308594 697.664062 118.292969 698.121094 C 118.304688 698.574219 118.382812 699.070312 118.433594 699.605469 C 118.535156 700.667969 118.644531 701.878906 119.015625 703.195312 C 119.566406 705.851562 120.859375 708.875 122.75 712.160156 C 124.617188 715.46875 127.199219 718.980469 129.554688 723.449219 C 131.886719 727.945312 133.820312 733.589844 132.800781 740.300781 C 132.660156 740.976562 132.515625 741.660156 132.371094 742.347656 L 132.152344 743.371094 L 132.042969 743.886719 L 132.011719 744.015625 L 131.921875 744.316406 L 131.898438 744.386719 L 131.796875 744.675781 C 131.515625 745.445312 131.230469 746.21875 130.949219 746.996094 C 130.597656 747.71875 130.246094 748.445312 129.890625 749.175781 C 128.390625 752.015625 126.519531 754.625 124.503906 757.03125 C 120.472656 761.886719 115.984375 766.339844 111.402344 770.648438 C 109.117188 772.8125 106.863281 774.976562 104.691406 777.167969 C 103.621094 778.273438 102.558594 779.382812 101.640625 780.433594 C 100.761719 781.421875 99.492188 782.949219 98.808594 783.960938 C 97.054688 786.460938 95.023438 788.851562 93.574219 791.464844 C 92.816406 792.753906 91.957031 794.007812 91.269531 795.316406 C 90.636719 796.640625 90 797.964844 89.371094 799.28125 C 87.144531 804.652344 85.558594 810.199219 84.84375 815.957031 C 84.4375 818.824219 84.214844 821.660156 83.890625 824.5 C 83.617188 827.414062 83.445312 830.101562 83.097656 833.015625 C 82.46875 838.875 80.765625 844.019531 79.132812 848.597656 C 77.511719 853.191406 75.804688 857.226562 74.484375 860.851562 C 73.175781 864.476562 72.160156 867.660156 71.53125 870.347656 C 70.980469 873.050781 70.632812 875.179688 70.558594 876.695312 C 70.496094 878.191406 70.460938 878.996094 70.460938 878.996094 Z M 70.460938 878.996094 "/><path style=" stroke:none;fill-rule:nonzero;fill:#000000;fill-opacity:1;" d="M 158.71875 717.296875 C 158.71875 717.296875 158.050781 717.742188 156.863281 718.347656 C 156.277344 718.664062 155.558594 719.019531 154.625 719.28125 C 153.707031 719.574219 152.621094 719.902344 151.46875 720.046875 C 150.882812 720.125 150.273438 720.210938 149.636719 720.296875 C 149.003906 720.339844 148.347656 720.324219 147.664062 720.339844 C 146.285156 720.382812 144.871094 720.15625 143.382812 719.941406 C 141.941406 719.605469 140.40625 719.28125 138.964844 718.671875 C 137.46875 718.167969 136.085938 717.394531 134.679688 716.664062 C 133.359375 715.800781 132.003906 714.980469 130.851562 713.960938 C 129.625 713.027344 128.597656 711.914062 127.585938 710.875 C 126.652344 709.761719 125.738281 708.707031 125.035156 707.589844 C 124.296875 706.496094 123.664062 705.425781 123.167969 704.390625 C 122.128906 702.347656 121.542969 700.511719 121.238281 699.1875 C 120.921875 697.875 120.835938 697.085938 120.835938 697.085938 C 120.835938 697.085938 121.554688 697.472656 122.640625 698.207031 C 123.742188 698.933594 125.253906 699.976562 126.976562 701.183594 C 127.820312 701.804688 128.746094 702.441406 129.703125 703.109375 C 130.621094 703.816406 131.675781 704.441406 132.65625 705.179688 C 133.671875 705.851562 134.722656 706.542969 135.792969 707.246094 C 136.84375 707.953125 137.941406 708.578125 139.015625 709.25 C 140.113281 709.855469 141.199219 710.503906 142.300781 711.046875 C 143.386719 711.660156 144.503906 712.105469 145.570312 712.664062 C 146.671875 713.078125 147.71875 713.644531 148.773438 713.988281 C 149.8125 714.429688 150.828125 714.789062 151.792969 715.101562 C 152.769531 715.480469 153.636719 715.710938 154.453125 715.980469 C 155.253906 716.265625 156.039062 716.507812 156.6875 716.652344 C 157.972656 717.003906 158.71875 717.296875 158.71875 717.296875 Z M 158.71875 717.296875 "/><path style=" stroke:none;fill-rule:nonzero;fill:#000000;fill-opacity:1;" d="M 529.984375 1076.039062 C 533.726562 1077.210938 537.355469 1078.898438 540.757812 1080.945312 C 544.152344 1083.023438 547.300781 1085.492188 550.273438 1088.15625 C 556.183594 1093.523438 561.261719 1099.75 565.820312 1106.277344 C 570.332031 1112.847656 574.328125 1119.742188 578.003906 1126.78125 C 581.625 1133.851562 584.882812 1141.082031 587.953125 1148.382812 C 591.042969 1155.679688 593.773438 1163.105469 596.414062 1170.550781 C 599.03125 1178.003906 601.546875 1185.480469 603.890625 1193.003906 L 610.699219 1215.589844 C 612.949219 1223.101562 615.179688 1230.613281 617.542969 1237.957031 L 619.496094 1244.03125 L 613.171875 1243.542969 C 608.089844 1243.148438 602.609375 1244.585938 597.746094 1247.203125 C 592.886719 1249.839844 588.46875 1253.503906 585.148438 1257.898438 C 581.820312 1262.28125 579.753906 1267.507812 579.742188 1272.726562 C 579.695312 1275.335938 580.226562 1277.929688 581.21875 1280.402344 C 581.71875 1281.671875 582.316406 1282.832031 582.996094 1283.738281 C 583.714844 1284.726562 584.585938 1285.601562 585.589844 1286.363281 C 587.601562 1287.886719 590.136719 1288.921875 592.855469 1289.589844 C 595.578125 1290.28125 598.492188 1290.625 601.441406 1290.75 C 607.367188 1291.007812 613.433594 1290.414062 619.5 1289.742188 C 625.574219 1289.046875 631.644531 1288.015625 637.769531 1287.179688 C 640.828125 1286.757812 643.894531 1286.320312 646.984375 1286.027344 C 650.066406 1285.75 653.179688 1285.542969 656.261719 1285.71875 C 653.183594 1285.933594 650.160156 1286.523438 647.164062 1287.183594 C 644.160156 1287.847656 641.171875 1288.554688 638.183594 1289.304688 C 632.210938 1290.824219 626.207031 1292.285156 620.117188 1293.554688 C 614.023438 1294.824219 607.8125 1295.765625 601.402344 1295.957031 C 598.195312 1296.039062 594.929688 1295.894531 591.625 1295.296875 C 588.339844 1294.675781 584.96875 1293.546875 581.9375 1291.492188 C 580.425781 1290.472656 579.03125 1289.210938 577.859375 1287.765625 C 576.625 1286.257812 575.753906 1284.679688 575.03125 1283.125 C 573.550781 1279.960938 572.613281 1276.445312 572.488281 1272.878906 C 572.257812 1265.714844 574.855469 1258.839844 578.765625 1253.304688 C 582.683594 1247.71875 587.84375 1243.152344 593.796875 1239.898438 C 599.726562 1236.65625 606.585938 1234.601562 613.84375 1235.0625 L 609.476562 1240.648438 C 606.910156 1233.085938 604.765625 1225.519531 602.585938 1217.972656 L 596.003906 1195.40625 C 593.769531 1187.914062 591.558594 1180.421875 589.152344 1173.003906 C 586.757812 1165.578125 584.195312 1158.21875 581.539062 1150.90625 C 578.855469 1143.605469 575.960938 1136.382812 572.753906 1129.3125 C 569.597656 1122.226562 566.128906 1115.277344 562.152344 1108.640625 C 558.21875 1101.976562 553.777344 1095.605469 548.527344 1089.917969 C 543.304688 1084.242188 537.171875 1079.265625 529.984375 1076.039062 Z M 529.984375 1076.039062 "/><path style=" stroke:none;fill-rule:nonzero;fill:#000000;fill-opacity:1;" d="M 641.121094 1025.511719 C 641.121094 1025.511719 644.558594 1026.230469 651 1027.585938 C 652.613281 1027.910156 654.402344 1028.328125 656.394531 1028.6875 C 658.398438 1028.957031 660.578125 1029.257812 662.941406 1029.578125 C 665.292969 1029.898438 667.824219 1030.246094 670.523438 1030.613281 C 673.230469 1030.929688 676.132812 1031.132812 679.179688 1031.417969 C 691.375 1032.644531 706.269531 1033.082031 723.367188 1033.664062 C 731.917969 1033.898438 741.035156 1034.277344 750.652344 1034.765625 C 755.480469 1035.148438 760.429688 1035.539062 765.496094 1035.941406 C 770.5 1036.589844 775.605469 1037.136719 780.839844 1037.90625 C 801.902344 1041.015625 824.113281 1046.203125 847.796875 1049.722656 C 850.761719 1050.078125 853.746094 1050.4375 856.75 1050.796875 C 858.25 1050.976562 859.753906 1051.160156 861.265625 1051.339844 C 862.777344 1051.496094 864.300781 1051.5625 865.820312 1051.675781 C 871.984375 1052.089844 878.21875 1052.507812 884.527344 1052.925781 C 887.757812 1053.316406 891.09375 1053.660156 894.351562 1054.214844 C 897.59375 1054.867188 900.871094 1055.398438 904.09375 1056.378906 C 910.589844 1058.03125 916.960938 1060.578125 923.039062 1063.71875 C 929.167969 1066.816406 934.867188 1070.726562 940.277344 1074.921875 C 945.726562 1079.101562 950.8125 1083.671875 955.835938 1088.292969 C 960.867188 1092.921875 965.777344 1097.636719 970.757812 1102.320312 C 973.242188 1104.636719 975.730469 1106.964844 978.226562 1109.292969 C 980.773438 1111.605469 983.328125 1113.921875 985.886719 1116.242188 C 991 1120.929688 996.21875 1125.371094 1001.328125 1130.257812 C 1003.875 1132.699219 1006.503906 1135.023438 1008.988281 1137.566406 L 1016.378906 1145.3125 C 1017.644531 1146.585938 1018.792969 1147.984375 1019.929688 1149.277344 C 1021.074219 1150.578125 1022.246094 1152.050781 1023.402344 1153.429688 C 1025.648438 1156.316406 1027.898438 1159.277344 1029.757812 1162.875 C 1030.660156 1164.699219 1031.46875 1166.691406 1031.890625 1168.925781 C 1032.070312 1170.058594 1032.285156 1171.179688 1032.203125 1172.363281 C 1032.191406 1172.945312 1032.1875 1173.53125 1032.148438 1174.109375 L 1031.84375 1175.796875 C 1030.882812 1180.316406 1028.609375 1183.757812 1026.410156 1186.804688 C 1025.300781 1188.371094 1024.101562 1189.730469 1022.929688 1191.160156 C 1021.695312 1192.542969 1020.617188 1193.828125 1019.234375 1195.253906 L 1011.910156 1202.8125 C 1009.488281 1205.339844 1006.742188 1207.738281 1004.171875 1210.199219 L 1000.257812 1213.859375 L 996.269531 1217.34375 C 990.992188 1222.042969 985.578125 1226.5 980.199219 1230.972656 C 979.183594 1231.867188 977.496094 1233.265625 976.601562 1234.269531 C 975.5625 1235.289062 974.390625 1236.613281 973.179688 1237.894531 C 970.800781 1240.480469 967.84375 1243.40625 964.074219 1245.339844 L 961.207031 1246.554688 L 960.847656 1246.703125 C 960.769531 1246.746094 960.214844 1246.902344 960.300781 1246.875 L 959.675781 1247.046875 C 959.226562 1247.160156 958.929688 1247.277344 958.347656 1247.382812 C 956.003906 1247.867188 954.113281 1247.96875 952.171875 1247.964844 C 948.328125 1247.945312 944.847656 1247.429688 941.5625 1247.148438 C 938.3125 1246.855469 935.253906 1246.753906 932.707031 1247.378906 C 932.085938 1247.550781 931.449219 1247.703125 930.894531 1247.976562 L 930.460938 1248.148438 C 930.464844 1248.136719 930.144531 1248.289062 930.417969 1248.148438 L 930.136719 1248.304688 L 929.023438 1248.921875 C 927.390625 1249.75 926.386719 1250.578125 925.21875 1251.371094 C 922.886719 1253.226562 920.675781 1255.347656 918.882812 1257.75 C 917.125 1260.171875 915.636719 1262.769531 914.65625 1265.496094 C 912.8125 1270.925781 912.953125 1276.796875 916.398438 1280.597656 C 916.722656 1281.140625 917.285156 1281.515625 917.75 1281.964844 L 918.464844 1282.628906 C 918.375 1282.578125 918.914062 1282.976562 918.308594 1282.5625 L 918.574219 1282.714844 L 920.167969 1283.640625 C 920.539062 1283.871094 920.730469 1283.828125 921.011719 1283.945312 L 921.785156 1284.203125 C 922.023438 1284.300781 922.289062 1284.402344 922.683594 1284.472656 C 925.441406 1285.214844 928.539062 1285.566406 931.613281 1285.824219 C 937.808594 1286.285156 944.140625 1286.195312 950.402344 1286.019531 C 956.671875 1285.828125 962.894531 1285.457031 969.117188 1285.164062 C 970.6875 1285.105469 972.25 1285.042969 973.808594 1284.984375 C 975.347656 1284.953125 976.882812 1284.929688 978.410156 1284.90625 C 979.9375 1284.863281 981.460938 1284.828125 982.980469 1284.789062 C 984.492188 1284.742188 985.863281 1284.53125 987.304688 1284.414062 C 998.84375 1283.375 1009.878906 1279.742188 1019.902344 1275.128906 C 1029.921875 1270.378906 1038.976562 1264.40625 1047.203125 1258.066406 C 1055.449219 1251.722656 1062.796875 1244.898438 1069.613281 1238.230469 C 1076.421875 1231.546875 1082.625 1224.921875 1088.347656 1218.589844 C 1099.761719 1205.890625 1109.363281 1194.460938 1117.4375 1185.1875 C 1125.464844 1175.878906 1132.054688 1168.796875 1136.621094 1164.050781 C 1138.894531 1161.667969 1140.6875 1159.886719 1141.894531 1158.695312 C 1143.101562 1157.492188 1143.722656 1156.871094 1143.722656 1156.871094 C 1143.722656 1156.871094 1143.128906 1157.523438 1141.980469 1158.777344 C 1140.828125 1160.027344 1139.121094 1161.882812 1136.964844 1164.367188 C 1132.601562 1169.292969 1126.457031 1176.730469 1118.71875 1186.261719 C 1110.976562 1195.796875 1101.78125 1207.542969 1090.757812 1220.6875 C 1079.671875 1233.75 1066.8125 1248.414062 1050.277344 1261.925781 C 1042 1268.636719 1032.796875 1275.058594 1022.414062 1280.300781 C 1011.976562 1285.40625 1000.441406 1289.421875 987.921875 1290.800781 C 986.359375 1290.957031 984.730469 1291.207031 983.210938 1291.28125 C 981.695312 1291.34375 980.171875 1291.414062 978.644531 1291.476562 C 977.121094 1291.53125 975.589844 1291.585938 974.050781 1291.640625 C 972.539062 1291.726562 971.019531 1291.8125 969.496094 1291.898438 C 963.359375 1292.296875 957.078125 1292.785156 950.691406 1293.09375 C 944.300781 1293.402344 937.808594 1293.601562 931.101562 1293.160156 C 927.738281 1292.910156 924.347656 1292.59375 920.78125 1291.683594 C 919.023438 1291.21875 916.398438 1290.269531 915.300781 1289.496094 L 914.765625 1289.195312 L 914.5 1289.042969 C 913.710938 1288.527344 914.117188 1288.757812 913.871094 1288.582031 L 912.753906 1287.601562 C 912.019531 1286.929688 911.226562 1286.332031 910.636719 1285.488281 C 910.027344 1284.683594 909.339844 1283.925781 908.816406 1283.050781 L 907.394531 1280.335938 C 907.042969 1279.382812 906.75 1278.40625 906.445312 1277.433594 C 906.144531 1276.457031 906.097656 1275.453125 905.929688 1274.460938 C 905.511719 1270.480469 906.136719 1266.574219 907.3125 1262.964844 C 908.558594 1259.375 910.398438 1256.082031 912.566406 1253.046875 C 914.777344 1250.027344 917.429688 1247.394531 920.375 1245.019531 C 921.976562 1243.863281 923.675781 1242.632812 925.082031 1241.910156 L 926.1875 1241.277344 L 926.464844 1241.121094 C 926.925781 1240.875 926.804688 1240.960938 927.003906 1240.863281 L 927.746094 1240.542969 C 928.730469 1240.078125 929.746094 1239.792969 930.761719 1239.515625 C 934.851562 1238.492188 938.738281 1238.703125 942.285156 1238.960938 C 945.816406 1239.261719 949.152344 1239.722656 952.199219 1239.714844 C 953.695312 1239.730469 955.253906 1239.558594 956.292969 1239.375 C 956.5625 1239.351562 957.082031 1239.167969 957.464844 1239.070312 L 958.089844 1238.898438 C 958.382812 1238.808594 958.042969 1238.925781 958.15625 1238.871094 L 958.394531 1238.765625 L 960.292969 1237.960938 C 962.707031 1236.703125 964.800781 1234.726562 967.089844 1232.222656 C 968.257812 1230.976562 969.371094 1229.683594 970.804688 1228.265625 C 972.28125 1226.71875 973.296875 1225.914062 974.890625 1224.511719 C 980.195312 1220.066406 985.539062 1215.632812 990.6875 1211.011719 L 994.59375 1207.578125 L 998.335938 1204.050781 C 1000.8125 1201.660156 1003.359375 1199.445312 1005.785156 1196.898438 L 1013.082031 1189.316406 C 1014.136719 1188.21875 1015.324219 1186.816406 1016.421875 1185.582031 C 1017.46875 1184.292969 1018.585938 1183.011719 1019.503906 1181.710938 C 1021.425781 1179.128906 1023.003906 1176.472656 1023.480469 1174.078125 C 1023.984375 1171.71875 1023.519531 1169.371094 1022.160156 1166.683594 C 1019.335938 1161.351562 1014.714844 1156.027344 1010.109375 1150.9375 L 1003.058594 1143.5 C 1000.679688 1141.042969 998.089844 1138.734375 995.621094 1136.355469 C 990.691406 1131.597656 985.363281 1127.019531 980.300781 1122.351562 C 977.75 1120.019531 975.203125 1117.695312 972.664062 1115.375 C 970.140625 1112.996094 967.625 1110.617188 965.117188 1108.25 C 960.167969 1103.5 955.296875 1098.71875 950.40625 1094.125 C 945.511719 1089.523438 940.617188 1085.035156 935.496094 1081.023438 C 930.398438 1076.980469 925.136719 1073.289062 919.53125 1070.390625 C 908.476562 1064.351562 896.0625 1061.355469 883.992188 1059.953125 C 877.667969 1059.417969 871.410156 1058.882812 865.226562 1058.359375 C 863.667969 1058.214844 862.105469 1058.121094 860.5625 1057.933594 C 859.023438 1057.71875 857.484375 1057.507812 855.957031 1057.296875 C 852.898438 1056.875 849.855469 1056.453125 846.839844 1056.035156 C 822.835938 1052.089844 800.679688 1046.328125 780.148438 1042.765625 C 774.988281 1041.871094 769.855469 1041.195312 764.886719 1040.421875 C 759.917969 1039.890625 755.066406 1039.371094 750.339844 1038.863281 C 740.8125 1038.050781 731.75 1037.367188 723.207031 1036.835938 C 706.136719 1035.671875 691.210938 1034.722656 679 1033.070312 C 675.945312 1032.675781 673.050781 1032.378906 670.339844 1031.960938 C 667.636719 1031.464844 665.105469 1031.003906 662.746094 1030.574219 C 660.398438 1030.140625 658.222656 1029.742188 656.230469 1029.378906 C 654.257812 1028.929688 652.488281 1028.429688 650.894531 1028.027344 C 644.519531 1026.386719 641.121094 1025.511719 641.121094 1025.511719 Z M 641.121094 1025.511719 "/><path style=" stroke:none;fill-rule:nonzero;fill:#000000;fill-opacity:1;" d="M 1158.863281 732.460938 C 1156.625 736.753906 1156.882812 741.667969 1157.5625 746.269531 C 1158.257812 750.914062 1159.535156 755.464844 1161.011719 759.941406 C 1164.011719 768.886719 1167.664062 777.621094 1171.507812 786.292969 C 1175.3125 794.976562 1179.25 803.621094 1183.023438 812.40625 C 1184.910156 816.800781 1186.734375 821.238281 1188.355469 825.800781 C 1189.96875 830.375 1191.480469 835.015625 1192.292969 840.136719 C 1193.5625 849.667969 1194.460938 859.363281 1194.226562 869.140625 C 1194.011719 878.894531 1192.699219 888.824219 1189.710938 898.28125 C 1186.78125 907.761719 1182.339844 916.601562 1177.476562 924.964844 C 1172.621094 933.316406 1167.191406 941.34375 1161.96875 949.160156 C 1159.402344 953.140625 1156.644531 957.074219 1154.15625 961.046875 C 1151.703125 965.042969 1149.140625 968.957031 1146.777344 973.019531 C 1144.457031 977.109375 1142.015625 981.132812 1139.796875 985.273438 C 1137.632812 989.441406 1135.355469 993.558594 1133.289062 997.773438 C 1131.296875 1002.019531 1129.164062 1006.207031 1127.25 1010.484375 C 1125.453125 1014.808594 1123.539062 1019.09375 1121.835938 1023.453125 C 1120.292969 1027.863281 1118.59375 1032.234375 1117.175781 1036.683594 C 1115.941406 1041.164062 1114.464844 1045.65625 1113.324219 1050.113281 C 1112.167969 1054.789062 1111.222656 1059.257812 1110.503906 1063.820312 C 1109.789062 1068.398438 1109.328125 1073 1109.226562 1077.589844 C 1108.96875 1086.761719 1110.308594 1095.96875 1113.6875 1104.449219 C 1117.207031 1112.835938 1122.996094 1120.5 1127.894531 1128.75 C 1130.359375 1132.878906 1132.554688 1137.238281 1134.089844 1141.847656 C 1135.632812 1146.445312 1136.40625 1151.320312 1136.15625 1156.132812 L 1136.148438 1156.042969 C 1136.265625 1156.808594 1136.316406 1157.578125 1136.292969 1158.347656 C 1136.246094 1159.117188 1136.109375 1159.871094 1135.898438 1160.605469 C 1135.65625 1161.332031 1135.34375 1162.023438 1134.957031 1162.671875 C 1134.558594 1163.3125 1134.097656 1163.898438 1133.601562 1164.457031 C 1134.046875 1163.859375 1134.453125 1163.234375 1134.785156 1162.574219 C 1135.101562 1161.90625 1135.34375 1161.214844 1135.511719 1160.503906 C 1135.652344 1159.789062 1135.710938 1159.066406 1135.691406 1158.34375 C 1135.648438 1157.621094 1135.535156 1156.910156 1135.367188 1156.210938 L 1135.359375 1156.1875 L 1135.359375 1156.125 C 1135.152344 1151.414062 1134.058594 1146.820312 1132.265625 1142.523438 C 1130.484375 1138.214844 1128.023438 1134.226562 1125.402344 1130.332031 C 1120.179688 1122.535156 1113.761719 1115.339844 1109.472656 1106.3125 C 1105.363281 1097.289062 1103.414062 1087.394531 1103.28125 1077.574219 C 1103.214844 1072.660156 1103.535156 1067.769531 1104.125 1062.933594 C 1104.714844 1058.085938 1105.582031 1053.210938 1106.554688 1048.625 C 1107.601562 1043.835938 1108.921875 1039.226562 1110.140625 1034.527344 C 1111.515625 1029.898438 1113.167969 1025.363281 1114.667969 1020.769531 C 1116.324219 1016.246094 1118.199219 1011.804688 1119.960938 1007.3125 C 1121.84375 1002.882812 1123.910156 998.535156 1125.902344 994.148438 C 1127.996094 989.816406 1130.289062 985.59375 1132.476562 981.3125 C 1134.71875 977.0625 1137.179688 972.9375 1139.519531 968.742188 C 1141.90625 964.574219 1144.523438 960.507812 1147.015625 956.386719 C 1149.546875 952.292969 1152.207031 948.40625 1154.84375 944.433594 C 1160.234375 936.484375 1165.515625 928.789062 1170.273438 920.734375 C 1175.035156 912.722656 1179.132812 904.453125 1182.0625 895.828125 C 1184.984375 887.191406 1186.386719 878.113281 1186.785156 868.890625 C 1187.144531 859.65625 1186.679688 850.335938 1185.753906 840.992188 C 1185.226562 836.691406 1183.976562 832.1875 1182.574219 827.761719 C 1181.140625 823.324219 1179.535156 818.890625 1177.898438 814.457031 L 1167.683594 787.84375 C 1164.386719 778.898438 1161.140625 769.886719 1158.78125 760.585938 C 1157.621094 755.9375 1156.644531 751.210938 1156.308594 746.402344 C 1156.128906 744.003906 1156.179688 741.578125 1156.488281 739.191406 C 1156.867188 736.820312 1157.546875 734.445312 1158.863281 732.460938 Z M 1158.863281 732.460938 "/><path style=" stroke:none;fill-rule:nonzero;fill:#000000;fill-opacity:1;" d="M 648.699219 1283.195312 C 648.699219 1283.195312 649.605469 1282.59375 651.296875 1281.472656 C 652.117188 1280.871094 653.011719 1280.007812 654.09375 1279.089844 C 655.03125 1277.96875 656.257812 1276.859375 657.277344 1275.304688 C 659.46875 1272.339844 661.503906 1268.316406 663.0625 1263.4375 C 664.613281 1258.554688 665.628906 1252.820312 666.214844 1246.507812 C 666.765625 1240.183594 666.789062 1233.277344 666.480469 1225.980469 C 666.117188 1218.679688 665.253906 1210.996094 664.175781 1203.078125 C 663.0625 1195.160156 661.457031 1187.042969 659.648438 1178.859375 C 658.726562 1174.773438 657.71875 1170.671875 656.558594 1166.625 C 655.976562 1164.597656 655.367188 1162.605469 654.714844 1160.605469 L 652.675781 1154.449219 C 650.0625 1146.1875 647.441406 1137.894531 645.125 1129.621094 C 642.730469 1121.375 640.824219 1113.101562 639.25 1105.03125 C 637.546875 1096.988281 636.683594 1089.03125 635.988281 1081.511719 C 635.839844 1077.726562 635.496094 1074.0625 635.542969 1070.496094 C 635.636719 1066.929688 635.535156 1063.496094 635.871094 1060.199219 C 636.132812 1056.910156 636.269531 1053.753906 636.800781 1050.785156 C 637.277344 1047.8125 637.578125 1044.988281 638.246094 1042.386719 C 638.855469 1039.78125 639.300781 1037.328125 639.941406 1035.109375 C 640.625 1032.910156 641.257812 1030.890625 641.824219 1029.0625 C 642.34375 1027.230469 642.972656 1025.644531 643.554688 1024.277344 C 644.117188 1022.910156 644.589844 1021.746094 644.976562 1020.800781 C 645.757812 1018.929688 646.175781 1017.925781 646.175781 1017.925781 C 646.175781 1017.925781 645.925781 1018.980469 645.445312 1020.960938 C 645.203125 1021.945312 644.898438 1023.160156 644.546875 1024.585938 C 644.183594 1026.003906 643.769531 1027.632812 643.480469 1029.5 C 643.144531 1031.351562 642.777344 1033.398438 642.375 1035.628906 C 642.046875 1037.867188 641.8125 1040.308594 641.496094 1042.886719 C 641.105469 1045.464844 641.101562 1048.25 640.933594 1051.15625 C 640.710938 1054.0625 640.785156 1057.132812 640.800781 1060.324219 C 640.851562 1066.707031 641.527344 1073.597656 642.363281 1080.847656 C 643.464844 1088.082031 644.785156 1095.671875 646.644531 1103.460938 C 647.472656 1107.363281 648.609375 1111.289062 649.621094 1115.28125 C 650.800781 1119.246094 651.859375 1123.277344 653.089844 1127.320312 C 655.457031 1135.421875 658.15625 1143.59375 660.839844 1151.800781 L 662.804688 1157.980469 C 663.472656 1160.097656 664.101562 1162.238281 664.679688 1164.363281 C 665.84375 1168.613281 666.839844 1172.863281 667.738281 1177.09375 C 669.574219 1185.546875 670.742188 1193.972656 671.660156 1202.144531 C 672.566406 1210.324219 672.921875 1218.296875 672.867188 1225.859375 C 672.820312 1233.425781 672.203125 1240.59375 671.082031 1247.140625 C 670 1253.691406 668.296875 1259.613281 666.125 1264.59375 C 663.992188 1269.597656 661.257812 1273.578125 658.582031 1276.394531 C 657.328125 1277.882812 655.882812 1278.890625 654.757812 1279.863281 C 653.46875 1280.675781 652.421875 1281.40625 651.523438 1281.878906 C 649.683594 1282.734375 648.699219 1283.195312 648.699219 1283.195312 Z M 648.699219 1283.195312 "/><path style=" stroke:none;fill-rule:nonzero;fill:#000000;fill-opacity:1;" d="M 14.753906 1268.035156 C 14.753906 1268.035156 14.394531 1267.722656 13.691406 1267.125 C 12.992188 1266.539062 11.972656 1265.609375 10.785156 1264.257812 C 9.621094 1262.914062 8.167969 1261.105469 7.472656 1258.460938 C 7.082031 1257.160156 7.054688 1255.621094 7.394531 1254.066406 C 7.753906 1252.503906 8.558594 1250.96875 9.648438 1249.589844 C 14.230469 1244.144531 22.03125 1240.644531 30.878906 1237.71875 C 35.375 1236.273438 40.078125 1235.027344 45.070312 1233.535156 C 47.460938 1232.679688 49.96875 1231.941406 52.4375 1230.988281 C 54.863281 1229.945312 57.417969 1229.027344 59.75 1227.625 C 62.210938 1226.449219 64.425781 1224.734375 66.765625 1223.160156 C 67.871094 1222.246094 68.980469 1221.324219 70.105469 1220.390625 L 71.785156 1218.984375 L 73.417969 1217.429688 C 77.828125 1213.410156 82.171875 1208.707031 86.851562 1204.160156 C 96.117188 1194.964844 105.855469 1185.234375 116.046875 1175.296875 C 121.117188 1170.300781 126.296875 1165.246094 131.578125 1160.167969 C 136.863281 1155.09375 142.210938 1149.957031 147.601562 1144.777344 C 153.011719 1139.621094 158.464844 1134.421875 163.9375 1129.199219 C 169.289062 1123.972656 174.773438 1118.585938 179.925781 1113.179688 C 190.394531 1102.398438 200.652344 1091.308594 209.617188 1079.621094 C 210.746094 1078.164062 211.953125 1076.769531 213.007812 1075.273438 C 214.066406 1073.785156 215.121094 1072.292969 216.175781 1070.8125 C 218.257812 1067.835938 220.546875 1064.988281 222.335938 1061.890625 C 224.214844 1058.839844 226.132812 1055.835938 227.949219 1052.808594 C 229.539062 1049.675781 231.113281 1046.566406 232.679688 1043.480469 L 233.269531 1042.324219 L 233.5625 1041.746094 C 233.546875 1041.800781 233.707031 1041.421875 233.542969 1041.832031 L 233.597656 1041.675781 L 233.710938 1041.363281 L 234.617188 1038.871094 L 235.523438 1036.390625 C 235.667969 1035.980469 235.835938 1035.558594 235.960938 1035.15625 L 236.21875 1033.996094 C 236.578125 1032.449219 236.929688 1030.910156 237.285156 1029.378906 C 237.570312 1027.777344 237.769531 1026.109375 238.011719 1024.488281 C 238.871094 1017.921875 239.066406 1011.289062 239.488281 1004.6875 C 239.632812 1001.417969 240.035156 998.113281 240.324219 994.894531 C 240.519531 993.28125 240.828125 991.675781 241.070312 990.085938 L 241.460938 987.710938 L 241.5625 987.125 L 241.640625 986.746094 L 241.707031 986.464844 L 241.980469 985.347656 C 243.457031 979.121094 245.925781 973.414062 248.203125 968.226562 C 250.523438 963.007812 252.589844 958.105469 253.925781 953.285156 C 255.285156 948.476562 255.796875 943.746094 255.523438 939.285156 C 255.414062 938.175781 255.304688 937.082031 255.199219 936.003906 C 255.128906 935.046875 254.832031 933.863281 254.664062 932.828125 C 254.183594 930.871094 253.628906 928.929688 252.914062 927.097656 C 251.535156 923.433594 249.863281 920.15625 248.480469 917.109375 C 245.589844 911.046875 244.441406 905.722656 244.359375 902.144531 C 244.351562 901.25 244.347656 900.457031 244.339844 899.773438 C 244.371094 899.09375 244.4375 898.519531 244.46875 898.0625 C 244.546875 897.144531 244.585938 896.671875 244.585938 896.671875 C 244.585938 896.671875 244.585938 897.148438 244.589844 898.066406 C 244.597656 898.527344 244.578125 899.097656 244.609375 899.769531 C 244.671875 900.441406 244.742188 901.222656 244.828125 902.105469 C 245.199219 905.640625 246.800781 910.589844 250.011719 916.347656 C 251.582031 919.25 253.496094 922.414062 255.214844 926.140625 C 256.09375 927.984375 256.839844 930.015625 257.496094 932.222656 C 257.738281 933.3125 258.054688 934.253906 258.25 935.519531 C 258.429688 936.660156 258.613281 937.824219 258.796875 939.011719 C 259.378906 943.777344 259.121094 949 257.957031 954.265625 C 256.824219 959.539062 254.816406 964.808594 252.769531 970.101562 C 250.714844 975.433594 248.691406 980.785156 247.597656 986.589844 L 247.375 987.722656 L 247.320312 988.003906 C 247.320312 988.011719 247.28125 988.183594 247.3125 988.058594 L 247.292969 988.199219 L 247.226562 988.753906 L 246.941406 990.996094 C 246.761719 992.5 246.519531 993.992188 246.386719 995.53125 C 246.214844 998.636719 245.933594 1001.742188 245.894531 1004.996094 C 245.6875 1011.425781 245.726562 1018.226562 245.046875 1025.28125 C 244.835938 1027.054688 244.683594 1028.820312 244.421875 1030.632812 C 244.027344 1032.484375 243.628906 1034.34375 243.230469 1036.207031 L 242.917969 1037.609375 C 242.792969 1038.042969 242.640625 1038.445312 242.5 1038.863281 L 241.644531 1041.363281 L 240.789062 1043.875 L 240.679688 1044.1875 L 240.628906 1044.34375 C 240.429688 1044.863281 240.53125 1044.578125 240.464844 1044.734375 L 240.171875 1045.347656 L 239.574219 1046.585938 C 237.984375 1049.882812 236.382812 1053.207031 234.765625 1056.558594 C 232.929688 1059.765625 230.996094 1062.941406 229.089844 1066.167969 C 227.269531 1069.460938 224.984375 1072.425781 222.882812 1075.558594 C 221.804688 1077.101562 220.71875 1078.648438 219.632812 1080.199219 C 218.550781 1081.753906 217.328125 1083.191406 216.175781 1084.699219 C 207.003906 1096.800781 196.675781 1108.128906 186.058594 1119.1875 C 180.691406 1124.738281 175.304688 1129.957031 169.796875 1135.265625 C 164.289062 1140.449219 158.804688 1145.609375 153.359375 1150.734375 C 142.515625 1161.023438 131.59375 1170.890625 121.289062 1180.71875 C 110.953125 1190.511719 100.847656 1199.855469 91.289062 1208.753906 C 86.449219 1213.128906 82.0625 1217.671875 77.203125 1221.71875 L 75.4375 1223.246094 L 73.570312 1224.675781 C 72.324219 1225.613281 71.113281 1226.566406 69.871094 1227.464844 C 67.230469 1229.089844 64.726562 1230.820312 61.980469 1232 C 56.644531 1234.671875 51.214844 1236.136719 46.113281 1237.527344 C 41.078125 1238.722656 36.1875 1239.71875 31.800781 1240.855469 C 23.058594 1243.214844 15.34375 1246.101562 10.9375 1250.699219 C 8.785156 1252.992188 7.984375 1255.828125 8.46875 1258.246094 C 8.875 1260.683594 10.117188 1262.574219 11.144531 1263.972656 C 12.1875 1265.390625 13.117188 1266.394531 13.773438 1267.042969 C 14.417969 1267.695312 14.753906 1268.035156 14.753906 1268.035156 Z M 14.753906 1268.035156 "/><g clip-rule="nonzero" clip-path="url(#052866f0b1)"><path style=" stroke:none;fill-rule:nonzero;fill:#000000;fill-opacity:1;" d="M 1110.882812 1038.136719 C 1110.882812 1038.136719 1112.644531 1038.476562 1115.949219 1039.113281 C 1117.605469 1039.402344 1119.566406 1040.15625 1121.9375 1040.839844 C 1124.28125 1041.605469 1126.886719 1042.683594 1129.796875 1043.917969 C 1135.597656 1046.414062 1142.382812 1050 1150.335938 1053.324219 C 1152.300781 1054.238281 1154.425781 1054.808594 1156.554688 1055.597656 L 1157.355469 1055.878906 C 1157.484375 1055.941406 1157.882812 1056.019531 1158.128906 1056.089844 C 1158.703125 1056.234375 1159.277344 1056.382812 1159.855469 1056.527344 C 1161.015625 1056.824219 1162.1875 1057.121094 1163.378906 1057.421875 C 1165.753906 1058.035156 1168.191406 1058.660156 1170.683594 1059.304688 C 1173.175781 1059.910156 1175.738281 1060.351562 1178.34375 1060.902344 C 1180.953125 1061.425781 1183.613281 1061.960938 1186.328125 1062.507812 C 1189.078125 1063.023438 1191.886719 1063.546875 1194.738281 1064.082031 C 1200.445312 1065.078125 1206.351562 1066.484375 1212.433594 1067.792969 C 1224.460938 1070.660156 1237.078125 1073.375 1250.226562 1076.941406 C 1263.296875 1080.574219 1276.898438 1084.847656 1289.804688 1091.714844 C 1296.207031 1095.195312 1302.570312 1099.054688 1308.269531 1103.929688 C 1309.761719 1105.054688 1311.125 1106.34375 1312.480469 1107.648438 C 1313.808594 1108.972656 1315.28125 1110.160156 1316.492188 1111.609375 L 1320.242188 1115.851562 L 1320.710938 1116.382812 L 1321.191406 1117 L 1322.011719 1118.066406 L 1323.644531 1120.207031 L 1326.886719 1124.5 C 1327.980469 1125.910156 1329.039062 1127.371094 1330.0625 1128.90625 C 1332.128906 1131.921875 1334.199219 1134.9375 1336.257812 1137.945312 C 1340.101562 1144.074219 1344.066406 1150.078125 1347.550781 1156.308594 C 1354.84375 1168.578125 1361.046875 1181.203125 1366.507812 1193.671875 C 1367.816406 1196.824219 1369.222656 1199.890625 1370.417969 1203.023438 C 1371.5625 1206.183594 1372.695312 1209.3125 1373.8125 1212.40625 L 1374.226562 1213.566406 L 1374.332031 1213.855469 L 1374.449219 1214.230469 L 1374.621094 1214.8125 L 1375.296875 1217.121094 C 1375.710938 1218.707031 1376.160156 1220.421875 1376.492188 1221.988281 C 1377.203125 1225.167969 1377.753906 1228.25 1378.367188 1231.222656 C 1379.570312 1237.125 1381.109375 1242.539062 1384.472656 1246.183594 C 1386.042969 1248.109375 1388.230469 1249.40625 1390.429688 1250.589844 C 1391.628906 1251.039062 1392.734375 1251.648438 1393.980469 1251.980469 C 1395.191406 1252.296875 1396.496094 1252.785156 1397.59375 1252.96875 C 1398.886719 1253.183594 1400.304688 1253.554688 1401.398438 1253.558594 L 1403.136719 1253.703125 C 1403.71875 1253.734375 1404.3125 1253.667969 1404.898438 1253.660156 C 1407.261719 1253.644531 1409.464844 1253.046875 1411.566406 1252.355469 C 1415.699219 1250.726562 1419.042969 1247.777344 1421.542969 1244.464844 C 1424.0625 1241.140625 1425.792969 1237.507812 1427.214844 1234.085938 C 1428.628906 1230.675781 1429.640625 1227.304688 1430.382812 1224.382812 C 1430.679688 1222.84375 1430.992188 1221.382812 1431.226562 1220.015625 C 1431.367188 1218.648438 1431.5 1217.367188 1431.621094 1216.175781 C 1431.867188 1213.78125 1431.792969 1211.699219 1431.878906 1210.023438 C 1431.726562 1206.664062 1431.644531 1204.875 1431.644531 1204.875 C 1431.644531 1204.875 1431.886719 1206.660156 1432.347656 1210 C 1432.410156 1211.6875 1432.671875 1213.757812 1432.648438 1216.230469 C 1432.628906 1217.472656 1432.605469 1218.808594 1432.585938 1220.234375 C 1432.457031 1221.632812 1432.253906 1223.101562 1432.074219 1224.664062 C 1431.507812 1227.871094 1430.765625 1231.25 1429.554688 1234.941406 C 1428.371094 1238.609375 1426.757812 1242.527344 1424.230469 1246.363281 C 1421.714844 1250.164062 1418.09375 1253.886719 1413.183594 1256.179688 C 1410.714844 1257.207031 1408.015625 1258.019531 1405.21875 1258.195312 C 1404.519531 1258.242188 1403.824219 1258.34375 1403.105469 1258.339844 C 1402.378906 1258.316406 1401.648438 1258.292969 1400.917969 1258.269531 C 1399.371094 1258.269531 1398.1875 1257.988281 1396.816406 1257.832031 C 1395.25 1257.632812 1393.976562 1257.207031 1392.511719 1256.890625 C 1391.085938 1256.574219 1389.6875 1255.933594 1388.25 1255.449219 C 1385.476562 1254.160156 1382.574219 1252.59375 1380.296875 1250.125 C 1377.980469 1247.753906 1376.148438 1244.824219 1374.945312 1241.800781 C 1373.726562 1238.777344 1372.855469 1235.683594 1372.117188 1232.628906 C 1371.378906 1229.585938 1370.726562 1226.53125 1369.949219 1223.558594 C 1369.5625 1222.046875 1369.160156 1220.6875 1368.71875 1219.195312 L 1367.765625 1216.335938 C 1367.746094 1216.28125 1367.679688 1216.058594 1367.699219 1216.136719 L 1367.585938 1215.859375 L 1367.144531 1214.75 C 1365.980469 1211.785156 1364.796875 1208.792969 1363.609375 1205.769531 C 1362.386719 1202.757812 1360.945312 1199.78125 1359.609375 1196.75 C 1358.925781 1195.238281 1358.234375 1193.71875 1357.542969 1192.195312 C 1356.789062 1190.699219 1356.03125 1189.195312 1355.269531 1187.683594 C 1353.726562 1184.679688 1352.273438 1181.605469 1350.632812 1178.597656 C 1347.304688 1172.601562 1344.039062 1166.484375 1340.410156 1160.503906 C 1336.953125 1154.425781 1333.027344 1148.570312 1329.234375 1142.613281 C 1327.234375 1139.742188 1325.234375 1136.859375 1323.230469 1133.980469 C 1321.304688 1131.078125 1318.941406 1128.273438 1316.828125 1125.402344 C 1308.757812 1114.097656 1297.996094 1105.488281 1285.917969 1099.019531 L 1281.378906 1096.652344 C 1279.828125 1095.9375 1278.277344 1095.226562 1276.730469 1094.519531 C 1275.203125 1093.773438 1273.621094 1093.132812 1272.042969 1092.492188 C 1270.464844 1091.859375 1268.921875 1091.164062 1267.320312 1090.585938 C 1260.980469 1088.171875 1254.5625 1086.105469 1248.183594 1084.195312 C 1241.789062 1082.328125 1235.441406 1080.632812 1229.195312 1078.941406 C 1222.933594 1077.285156 1216.804688 1075.523438 1210.871094 1073.980469 C 1199.066406 1070.804688 1187.746094 1068.449219 1177.152344 1065.65625 C 1174.527344 1064.96875 1171.914062 1064.378906 1169.4375 1063.648438 C 1166.980469 1062.875 1164.582031 1062.117188 1162.242188 1061.378906 C 1161.074219 1061.003906 1159.917969 1060.632812 1158.785156 1060.269531 C 1158.214844 1060.089844 1157.648438 1059.90625 1157.089844 1059.726562 C 1156.777344 1059.621094 1156.597656 1059.589844 1156.183594 1059.417969 L 1155.351562 1059.074219 C 1153.175781 1058.117188 1150.96875 1057.359375 1149.023438 1056.304688 C 1141.039062 1052.421875 1134.617188 1048.324219 1129.070312 1045.445312 C 1127.707031 1044.671875 1126.359375 1044.085938 1125.117188 1043.457031 C 1123.863281 1042.867188 1122.722656 1042.195312 1121.59375 1041.785156 C 1119.347656 1040.921875 1117.484375 1039.996094 1115.855469 1039.558594 C 1112.609375 1038.632812 1110.882812 1038.136719 1110.882812 1038.136719 Z M 1110.882812 1038.136719 "/></g><path style=" stroke:none;fill-rule:nonzero;fill:#000000;fill-opacity:1;" d="M 1163.929688 732.460938 C 1162.5625 733.648438 1162.101562 735.484375 1162.269531 737.191406 C 1162.425781 738.910156 1162.941406 740.578125 1163.601562 742.175781 C 1164.9375 745.382812 1166.824219 748.335938 1168.722656 751.253906 C 1172.59375 757.066406 1176.996094 762.523438 1181.449219 767.9375 L 1195 784.109375 C 1197.242188 786.839844 1199.488281 789.582031 1201.570312 792.535156 C 1202.628906 794.035156 1203.585938 795.476562 1204.566406 797.300781 L 1206.875 802.039062 C 1208.421875 805.191406 1210.003906 808.316406 1211.269531 811.710938 C 1212.566406 815.046875 1214.089844 818.363281 1215.140625 821.738281 C 1216.253906 825.113281 1217.511719 828.460938 1218.480469 831.867188 L 1221.421875 842.078125 C 1223.25 848.910156 1225.03125 855.730469 1226.757812 862.53125 C 1228.53125 869.304688 1230.328125 876.0625 1232.289062 882.722656 L 1233.003906 885.230469 L 1233.09375 885.542969 C 1233.113281 885.605469 1233.011719 885.285156 1233.066406 885.457031 L 1233.148438 885.691406 L 1233.375 886.308594 L 1233.816406 887.550781 L 1235.59375 892.511719 C 1236.140625 894.226562 1236.878906 895.707031 1237.582031 897.214844 L 1239.683594 901.753906 C 1241.152344 904.769531 1242.972656 907.714844 1244.59375 910.699219 C 1246.382812 913.605469 1248.335938 916.429688 1250.1875 919.296875 L 1256.335938 927.546875 L 1262.957031 935.453125 C 1265.265625 938 1267.65625 940.480469 1270 943.003906 C 1272.425781 945.445312 1274.953125 947.792969 1277.421875 950.199219 C 1279.949219 952.546875 1282.597656 954.757812 1285.175781 957.046875 C 1287.792969 959.296875 1290.558594 961.367188 1293.238281 963.539062 C 1298.734375 967.714844 1304.332031 971.75 1310.132812 975.488281 C 1315.929688 979.222656 1321.894531 982.683594 1328 985.863281 C 1331.039062 987.488281 1334.195312 988.84375 1337.285156 990.351562 C 1340.417969 991.746094 1343.617188 992.96875 1346.78125 994.289062 L 1349.128906 995.269531 L 1349.4375 997.613281 C 1350.53125 1005.949219 1354.300781 1013.984375 1358.832031 1021.824219 C 1363.332031 1029.703125 1368.585938 1037.558594 1372.398438 1046.527344 C 1374.148438 1051.101562 1375.730469 1055.222656 1377.285156 1059.671875 L 1381.5625 1073.054688 C 1382.996094 1077.414062 1384.226562 1081.910156 1385.828125 1086.164062 L 1388.121094 1092.617188 L 1388.695312 1094.230469 L 1388.957031 1094.972656 L 1389.289062 1095.769531 L 1390.632812 1098.96875 C 1391.488281 1101.148438 1392.460938 1103.160156 1393.40625 1105.210938 C 1394.324219 1107.261719 1395.363281 1109.3125 1396.390625 1111.363281 C 1398.425781 1115.46875 1400.597656 1119.53125 1402.777344 1123.605469 C 1404.941406 1127.679688 1407.183594 1131.738281 1409.304688 1135.871094 C 1411.441406 1139.988281 1413.519531 1144.15625 1415.496094 1148.375 C 1417.476562 1152.59375 1419.296875 1156.894531 1420.972656 1161.25 C 1421.734375 1163.457031 1422.546875 1165.648438 1423.265625 1167.871094 L 1425.15625 1174.621094 L 1426.542969 1181.488281 C 1426.8125 1183.8125 1427.070312 1186.132812 1427.285156 1188.449219 L 1427.3125 1195.429688 L 1426.597656 1202.351562 L 1426.800781 1195.421875 L 1426.261719 1188.542969 L 1425.074219 1181.761719 L 1423.347656 1175.109375 L 1421.132812 1168.605469 C 1420.304688 1166.472656 1419.386719 1164.363281 1418.523438 1162.246094 C 1416.640625 1158.066406 1414.625 1153.949219 1412.445312 1149.902344 C 1408.09375 1141.808594 1403.292969 1133.9375 1398.625 1125.9375 C 1396.28125 1121.945312 1393.925781 1117.933594 1391.6875 1113.839844 C 1390.5625 1111.796875 1389.425781 1109.765625 1388.367188 1107.632812 C 1387.292969 1105.523438 1386.175781 1103.40625 1385.257812 1101.3125 L 1383.824219 1098.152344 L 1383.464844 1097.363281 L 1383.113281 1096.480469 L 1382.476562 1094.84375 L 1379.933594 1088.289062 C 1378.152344 1083.925781 1376.8125 1079.523438 1375.234375 1075.140625 L 1370.695312 1062.210938 C 1369.925781 1060.066406 1368.984375 1057.921875 1368.148438 1055.773438 L 1365.625 1049.457031 C 1362.058594 1041.414062 1356.875 1033.871094 1352.050781 1025.792969 C 1349.640625 1021.75 1347.308594 1017.546875 1345.375 1013.042969 C 1343.429688 1008.554688 1341.933594 1003.730469 1341.257812 998.707031 L 1343.910156 1002.03125 C 1340.578125 1000.667969 1337.199219 999.398438 1333.910156 997.953125 C 1330.675781 996.40625 1327.359375 994.992188 1324.1875 993.324219 C 1317.804688 990.050781 1311.585938 986.488281 1305.546875 982.648438 C 1299.519531 978.792969 1293.652344 974.6875 1288.003906 970.292969 C 1285.238281 968.027344 1282.386719 965.863281 1279.6875 963.515625 C 1277.023438 961.128906 1274.289062 958.816406 1271.683594 956.367188 C 1269.128906 953.855469 1266.523438 951.398438 1264.015625 948.84375 C 1261.585938 946.207031 1259.113281 943.605469 1256.722656 940.9375 C 1254.433594 938.167969 1252.109375 935.433594 1249.855469 932.636719 C 1247.726562 929.734375 1245.558594 926.863281 1243.503906 923.90625 C 1241.585938 920.847656 1239.589844 917.847656 1237.753906 914.738281 C 1236.070312 911.519531 1234.242188 908.4375 1232.691406 905.113281 L 1230.457031 900.042969 C 1229.710938 898.351562 1228.933594 896.65625 1228.441406 895 L 1226.75 890.007812 L 1226.328125 888.761719 L 1226.113281 888.136719 L 1225.957031 887.65625 L 1225.871094 887.335938 L 1225.183594 884.765625 C 1224.289062 881.332031 1223.285156 877.910156 1222.484375 874.472656 L 1220.0625 864.15625 C 1218.523438 857.285156 1216.949219 850.453125 1215.332031 843.652344 L 1212.726562 833.523438 C 1211.855469 830.148438 1210.765625 826.863281 1209.8125 823.515625 C 1208.902344 820.132812 1207.597656 816.996094 1206.484375 813.730469 C 1205.429688 810.484375 1203.960938 807.265625 1202.542969 804.050781 L 1200.421875 799.222656 C 1199.78125 797.925781 1198.875 796.378906 1197.960938 794.976562 C 1196.101562 792.109375 1194.070312 789.261719 1192 786.449219 L 1179.363281 769.570312 C 1175.191406 763.886719 1171.0625 758.148438 1167.460938 752.046875 C 1165.671875 748.992188 1164.027344 745.820312 1162.882812 742.441406 C 1162.328125 740.75 1161.917969 738.988281 1161.886719 737.195312 C 1161.820312 735.429688 1162.492188 733.511719 1163.929688 732.460938 Z M 1163.929688 732.460938 "/><path style=" stroke:none;fill-rule:nonzero;fill:#000000;fill-opacity:1;" d="M 156.183594 714.785156 C 156.183594 714.785156 155.417969 714.382812 154.214844 713.578125 C 153.027344 712.804688 151.316406 711.441406 149.628906 709.628906 C 148.75 708.734375 147.886719 707.695312 147.035156 706.539062 C 146.140625 705.410156 145.382812 704.09375 144.566406 702.742188 C 144.179688 702.050781 143.84375 701.320312 143.488281 700.585938 C 143.113281 699.859375 142.78125 699.097656 142.515625 698.300781 C 142.242188 697.503906 141.898438 696.726562 141.675781 695.894531 L 141.039062 693.382812 C 140.820312 692.550781 140.769531 691.65625 140.628906 690.796875 C 140.492188 689.9375 140.425781 689.066406 140.433594 688.183594 C 140.339844 686.441406 140.523438 684.703125 140.800781 683.039062 C 140.890625 682.210938 141.171875 681.394531 141.398438 680.613281 C 141.648438 679.832031 141.820312 679.066406 142.199219 678.367188 C 142.539062 677.660156 142.859375 676.980469 143.195312 676.339844 C 143.535156 675.703125 143.996094 675.144531 144.378906 674.601562 C 144.796875 674.070312 145.140625 673.546875 145.566406 673.113281 C 146.015625 672.695312 146.425781 672.300781 146.832031 671.953125 C 147.238281 671.605469 147.597656 671.277344 147.957031 671.003906 C 148.355469 670.773438 148.71875 670.558594 149.046875 670.363281 C 150.359375 669.613281 151.132812 669.3125 151.132812 669.3125 C 151.132812 669.3125 150.863281 670.175781 150.34375 671.46875 C 150.21875 671.789062 150.082031 672.140625 149.929688 672.523438 C 149.835938 672.9375 149.703125 673.355469 149.582031 673.804688 C 149.453125 674.234375 149.316406 674.695312 149.171875 675.179688 C 149.046875 675.660156 148.980469 676.191406 148.878906 676.714844 C 148.617188 677.738281 148.546875 678.882812 148.4375 680.042969 C 148.347656 680.609375 148.378906 681.226562 148.375 681.835938 C 148.414062 682.453125 148.277344 683.039062 148.382812 683.6875 C 148.445312 684.324219 148.46875 684.960938 148.492188 685.605469 C 148.574219 686.253906 148.65625 686.914062 148.738281 687.578125 C 148.773438 688.238281 148.9375 688.90625 149.050781 689.585938 C 149.183594 690.261719 149.230469 690.9375 149.433594 691.617188 C 149.71875 692.984375 150.039062 694.347656 150.414062 695.710938 C 150.71875 697.078125 151.207031 698.402344 151.535156 699.734375 C 151.992188 701.027344 152.292969 702.347656 152.734375 703.558594 C 153.125 704.792969 153.484375 705.980469 153.859375 707.070312 C 154.566406 709.34375 155.15625 711.234375 155.566406 712.558594 C 156.011719 713.9375 156.183594 714.785156 156.183594 714.785156 Z M 156.183594 714.785156 "/><g clip-rule="nonzero" clip-path="url(#b5cc04e268)"><path style=" stroke:none;fill-rule:nonzero;fill:#000000;fill-opacity:1;" d="M 1166.441406 742.574219 C 1166.441406 742.574219 1166.085938 742.082031 1165.394531 741.132812 C 1164.710938 740.183594 1163.765625 738.6875 1162.8125 736.605469 C 1161.898438 734.503906 1160.996094 731.773438 1160.65625 728.425781 C 1160.292969 725.085938 1160.542969 721.171875 1161.546875 716.960938 C 1163.582031 708.523438 1168.527344 699.09375 1175.546875 689.4375 C 1182.558594 679.75 1191.582031 669.707031 1202.085938 659.523438 C 1212.570312 649.300781 1224.457031 638.824219 1237.300781 628.132812 C 1243.726562 622.816406 1250.328125 617.355469 1257.078125 611.769531 C 1263.785156 606.179688 1270.738281 600.5625 1277.320312 594.554688 C 1278.953125 593.046875 1280.558594 591.515625 1282.066406 589.953125 C 1282.402344 589.589844 1282.878906 589.109375 1283.105469 588.835938 L 1284.234375 587.535156 L 1286.503906 584.925781 C 1288.019531 583.183594 1289.539062 581.433594 1291.0625 579.679688 L 1293.351562 577.042969 L 1295.433594 574.324219 C 1296.820312 572.511719 1298.21875 570.695312 1299.613281 568.871094 C 1300.996094 567.035156 1302.472656 565.273438 1303.714844 563.296875 C 1306.261719 559.414062 1309.035156 555.644531 1311.46875 551.648438 C 1321.363281 535.75 1329.144531 518.230469 1334.003906 499.894531 C 1338.992188 481.597656 1341.09375 462.546875 1340.78125 443.800781 C 1340.441406 425.050781 1338.039062 406.589844 1334.25 389.011719 C 1330.511719 371.59375 1325.265625 353.765625 1327.621094 336.132812 C 1328.8125 327.394531 1332.070312 319.171875 1336.558594 312.347656 C 1341.046875 305.5 1346.367188 299.78125 1351.707031 294.691406 C 1354.386719 292.167969 1356.609375 289.800781 1358.757812 287.085938 C 1360.902344 284.433594 1362.871094 281.714844 1364.765625 279.046875 C 1368.535156 273.691406 1371.785156 268.371094 1374.515625 263.214844 C 1377.253906 258.0625 1379.40625 253.027344 1380.835938 248.230469 C 1382.277344 243.449219 1382.878906 238.804688 1382.066406 234.847656 C 1381.367188 230.820312 1378.59375 228.070312 1375.773438 226.6875 C 1372.914062 225.273438 1370.09375 224.859375 1367.859375 224.683594 C 1366.734375 224.632812 1365.734375 224.53125 1364.867188 224.535156 C 1364.003906 224.566406 1363.277344 224.59375 1362.691406 224.613281 C 1361.515625 224.652344 1360.910156 224.675781 1360.910156 224.675781 C 1360.910156 224.675781 1361.511719 224.613281 1362.679688 224.492188 C 1363.265625 224.433594 1363.996094 224.359375 1364.859375 224.269531 C 1365.726562 224.210938 1366.738281 224.238281 1367.878906 224.21875 C 1370.15625 224.25 1373.046875 224.460938 1376.203125 225.753906 C 1376.597656 225.921875 1376.996094 226.097656 1377.402344 226.273438 C 1377.804688 226.460938 1378.160156 226.761719 1378.550781 227.007812 C 1378.929688 227.273438 1379.339844 227.519531 1379.714844 227.820312 C 1380.050781 228.167969 1380.394531 228.523438 1380.746094 228.878906 C 1381.511719 229.546875 1381.933594 230.519531 1382.546875 231.394531 C 1382.9375 232.367188 1383.476562 233.363281 1383.6875 234.453125 C 1384.804688 238.804688 1384.367188 243.785156 1383.121094 248.839844 C 1381.882812 253.917969 1379.917969 259.214844 1377.375 264.632812 C 1374.835938 270.0625 1371.789062 275.65625 1368.203125 281.335938 C 1366.414062 284.183594 1364.46875 287.027344 1362.34375 289.875 C 1360.273438 292.707031 1357.714844 295.636719 1355.179688 298.183594 C 1350.179688 303.300781 1345.3125 308.960938 1341.421875 315.398438 C 1337.523438 321.828125 1334.84375 329.09375 1333.980469 336.917969 C 1333.039062 344.734375 1334.042969 353.03125 1335.609375 361.421875 C 1337.21875 369.796875 1339.570312 378.355469 1341.628906 387.367188 C 1345.710938 405.273438 1348.710938 424.203125 1349.066406 443.648438 C 1349.488281 463.066406 1347.429688 482.964844 1342.285156 502.132812 C 1337.105469 521.285156 1328.863281 539.5625 1318.496094 556.027344 C 1315.933594 560.160156 1313.070312 564.070312 1310.375 568.0625 C 1309.0625 570.074219 1307.472656 571.921875 1305.996094 573.820312 C 1304.5 575.707031 1303.007812 577.589844 1301.519531 579.46875 L 1299.289062 582.273438 L 1296.957031 584.875 C 1295.402344 586.605469 1293.859375 588.332031 1292.316406 590.050781 L 1290.011719 592.625 L 1288.859375 593.910156 C 1288.328125 594.5 1287.980469 594.820312 1287.535156 595.289062 C 1285.832031 597 1284.105469 598.59375 1282.375 600.144531 C 1275.410156 606.273438 1268.398438 611.84375 1261.492188 617.253906 C 1254.613281 622.652344 1247.882812 627.9375 1241.328125 633.078125 C 1228.3125 643.433594 1216.164062 653.378906 1205.445312 663.089844 C 1194.761719 672.832031 1185.402344 682.238281 1178.066406 691.359375 C 1170.738281 700.457031 1165.503906 709.367188 1163.148438 717.386719 C 1162 721.386719 1161.558594 725.113281 1161.671875 728.347656 C 1161.78125 731.589844 1162.476562 734.304688 1163.234375 736.421875 C 1164.039062 738.53125 1164.863281 740.0625 1165.488281 741.058594 C 1166.117188 742.058594 1166.441406 742.574219 1166.441406 742.574219 Z M 1166.441406 742.574219 "/></g></g></svg>