<?xml version="1.0" encoding="UTF-8"?>
<svg version="1.1" xmlns="http://www.w3.org/2000/svg" width="500" height="500">
<path d="M0 0 C1.85001114 0.01077827 1.85001114 0.01077827 3.73739624 0.02177429 C5.09137674 0.03573367 6.44535025 0.0503861 7.79931641 0.06567383 C8.48747059 0.07263086 9.17562477 0.0795879 9.88463211 0.08675575 C13.54639124 0.12421948 17.20800798 0.16819173 20.86962891 0.21728516 C23.85825051 0.2563437 26.84662206 0.28425142 29.83544922 0.30126953 C62.10229599 0.4913263 90.62538516 4.13252423 117.02587891 24.08520508 C118.05712891 24.84833008 119.08837891 25.61145508 120.15087891 26.39770508 C120.76962891 26.95458008 121.38837891 27.51145508 122.02587891 28.08520508 C122.02587891 28.74520508 122.02587891 29.40520508 122.02587891 30.08520508 C122.68587891 30.08520508 123.34587891 30.08520508 124.02587891 30.08520508 C124.02587891 30.74520508 124.02587891 31.40520508 124.02587891 32.08520508 C124.68587891 32.08520508 125.34587891 32.08520508 126.02587891 32.08520508 C126.02587891 32.74520508 126.02587891 33.40520508 126.02587891 34.08520508 C126.68587891 34.08520508 127.34587891 34.08520508 128.02587891 34.08520508 C129.69323941 36.09091479 131.21358562 38.08324074 132.71337891 40.21020508 C133.15963623 40.8425708 133.60589355 41.47493652 134.06567383 42.12646484 C153.44293052 70.22958053 157.6220112 105.96035548 152.02587891 139.08520508 C148.57915001 156.01884412 142.90213013 170.89965323 133.02587891 185.08520508 C132.48189453 185.87797852 131.93791016 186.67075195 131.37744141 187.48754883 C130.93142578 188.01477539 130.48541016 188.54200195 130.02587891 189.08520508 C129.36587891 189.08520508 128.70587891 189.08520508 128.02587891 189.08520508 C127.78869141 189.64723633 127.55150391 190.20926758 127.30712891 190.78833008 C125.73640194 193.6041455 123.81116426 195.56475924 121.52587891 197.83520508 C120.33478516 199.0340332 120.33478516 199.0340332 119.11962891 200.25708008 C117.02587891 202.08520508 117.02587891 202.08520508 115.02587891 202.08520508 C115.02587891 202.74520508 115.02587891 203.40520508 115.02587891 204.08520508 C92.67841023 222.2495894 67.97309343 228.30876111 39.60400391 228.18286133 C37.76500519 228.18073891 37.76500519 228.18073891 35.88885498 228.17857361 C32.0178369 228.17302822 28.14687916 228.16048623 24.27587891 228.14770508 C21.63265058 228.14268301 18.98942134 228.13812135 16.34619141 228.1340332 C9.90606705 228.12307675 3.46597729 228.10639404 -2.97412109 228.08520508 C-4.73902669 223.92880018 -6.49857535 219.77017646 -8.25366211 215.60961914 C-8.8486281 214.20115434 -9.44493378 212.79325452 -10.04272461 211.38598633 C-13.57962091 203.05687813 -16.9166005 194.72561644 -19.85742188 186.1640625 C-21.30808479 182.16443197 -23.04261444 178.33128917 -24.86083984 174.48754883 C-27.97412109 167.7694156 -27.97412109 167.7694156 -27.97412109 164.08520508 C-58.00412109 164.41520508 -88.03412109 164.74520508 -118.97412109 165.08520508 C-122.40147368 173.65358654 -125.80378158 182.19786673 -129.03662109 190.83520508 C-131.42023824 197.15889101 -133.91210717 203.35284928 -136.82177734 209.45629883 C-138.76906736 213.89876046 -140.24571538 218.51312867 -141.76318359 223.11645508 C-143.49679404 227.36659682 -143.49679404 227.36659682 -145.97412109 229.08520508 C-148.70318471 229.34676769 -151.198731 229.43441638 -153.92333984 229.37817383 C-154.69595657 229.37392899 -155.4685733 229.36968414 -156.26460266 229.36531067 C-158.73063102 229.34852691 -161.19584005 229.31087655 -163.66162109 229.27270508 C-165.33413533 229.25765779 -167.00666238 229.24396946 -168.67919922 229.23168945 C-172.77782187 229.19862454 -176.8758326 229.14684536 -180.97412109 229.08520508 C-182.13986314 225.58797895 -181.8345673 225.12624096 -180.38427734 221.90161133 C-180.01592773 221.06629883 -179.64757812 220.23098633 -179.26806641 219.37036133 C-178.86168945 218.47188477 -178.4553125 217.5734082 -178.03662109 216.64770508 C-177.1973368 214.74365714 -176.36014686 212.83868485 -175.52490234 210.93286133 C-175.09773926 209.96106934 -174.67057617 208.98927734 -174.23046875 207.98803711 C-172.31120891 203.55352496 -170.50761447 199.07573255 -168.72412109 194.58520508 C-168.22875854 193.33936646 -168.22875854 193.33936646 -167.72338867 192.06835938 C-165.46123692 186.35678278 -163.24285631 180.62929136 -161.05224609 174.88989258 C-159.73770972 171.47019289 -158.37251707 168.07239511 -157.00146484 164.67504883 C-155.81271928 161.67832522 -154.6767696 158.66323803 -153.53662109 155.64770508 C-151.99604421 151.61778139 -150.36667849 147.67917375 -148.53662109 143.77270508 C-146.57647575 139.54992282 -144.88445106 135.26756124 -143.28662109 130.89770508 C-140.80496465 124.12873373 -138.08577939 117.47872193 -135.28662109 110.83520508 C-130.96793802 100.5768877 -126.85022442 90.25029089 -122.81713867 79.87719727 C-120.36273035 73.5736314 -117.83558175 67.30983105 -115.2175293 61.07250977 C-113.07844611 55.93333405 -111.03036888 50.75795343 -108.97412109 45.58520508 C-106.49126579 39.33927221 -103.99248076 33.10360142 -101.39208984 26.90551758 C-98.92366965 21.01104214 -96.63231296 15.05853212 -94.39404297 9.07348633 C-94.10722656 8.32196289 -93.82041016 7.57043945 -93.52490234 6.79614258 C-93.14845581 5.79526611 -93.14845581 5.79526611 -92.7644043 4.77416992 C-91.97412109 3.08520508 -91.97412109 3.08520508 -89.97412109 1.08520508 C-87.46491264 0.91024902 -85.06787168 0.85350939 -82.56005859 0.88989258 C-81.83041901 0.89272247 -81.10077942 0.89555237 -80.34902954 0.89846802 C-78.01556082 0.90967506 -75.68247407 0.93477997 -73.34912109 0.96020508 C-71.76839747 0.97023423 -70.18766783 0.97936019 -68.60693359 0.98754883 C-64.72918195 1.00961602 -60.85171631 1.04414893 -56.97412109 1.08520508 C-54.68877517 6.14293786 -52.48547194 11.19852167 -50.53662109 16.39770508 C-48.97319471 20.50999023 -47.36833505 24.59282763 -45.66162109 28.64770508 C-43.43714146 33.9377957 -41.28951482 39.25575668 -39.16162109 44.58520508 C-38.82243652 45.43405273 -38.48325195 46.28290039 -38.13378906 47.1574707 C-36.36824688 51.58000916 -34.60924817 56.00506551 -32.85693359 60.43286133 C-29.78917482 68.16872997 -26.69889613 75.85120835 -23.18505859 83.39770508 C-19.51507719 91.54269607 -16.35708931 99.9050719 -13.41162109 108.33520508 C-11.99184616 112.3743749 -10.49017864 116.27725827 -8.66162109 120.14770508 C-6.13156796 125.51907971 -4.05757541 131.02997189 -1.97412109 136.58520508 C0.42094028 142.96833503 2.91262785 149.21908075 5.82666016 155.38598633 C7.60137336 159.38053623 9.06852045 163.4844961 10.57177734 167.58642578 C13.76141624 176.20682309 17.40817828 184.6377823 21.02587891 193.08520508 C48.57999334 194.87452378 48.57999334 194.87452378 75.02587891 188.08520508 C76.18216797 187.60374023 76.18216797 187.60374023 77.36181641 187.11254883 C82.16826096 184.9183024 86.08699965 181.83939763 90.14306641 178.47583008 C92.02587891 177.08520508 92.02587891 177.08520508 94.02587891 177.08520508 C94.27853516 176.51801758 94.53119141 175.95083008 94.79150391 175.36645508 C96.1870184 172.78740298 97.86437509 170.80788394 99.77587891 168.58520508 C112.21978226 153.17096675 117.43865412 132.91126248 117.33837891 113.39770508 C117.33273926 112.24866699 117.32709961 111.09962891 117.32128906 109.91577148 C117.10503146 94.74562199 114.44018404 77.4975181 105.02587891 65.08520508 C105.02587891 64.09520508 105.02587891 63.10520508 105.02587891 62.08520508 C104.36587891 62.08520508 103.70587891 62.08520508 103.02587891 62.08520508 C99.02587891 57.61461684 99.02587891 57.61461684 99.02587891 55.08520508 C98.36587891 55.08520508 97.70587891 55.08520508 97.02587891 55.08520508 C97.02587891 54.42520508 97.02587891 53.76520508 97.02587891 53.08520508 C96.45482422 52.81450195 95.88376953 52.54379883 95.29541016 52.26489258 C92.970032 51.05617622 90.8741223 49.69163838 88.71337891 48.21020508 C73.3397304 37.94449489 59.16046612 36.28940844 41.02587891 35.08520508 C34.09587891 34.59020508 34.09587891 34.59020508 27.02587891 34.08520508 C27.02587891 84.24520508 27.02587891 134.40520508 27.02587891 186.08520508 C23.19554723 184.17003924 21.83082082 183.30861172 20.38525391 179.31567383 C20.18416016 178.64149414 19.98306641 177.96731445 19.77587891 177.27270508 C18.25922237 172.54655819 16.3356183 168.04782485 14.35009766 163.50170898 C12.71963013 159.75063949 11.2035251 155.98007446 9.77587891 152.14770508 C7.05790653 144.96135092 3.96212202 137.94689701 0.85498047 130.92138672 C0.0366067 129.06252307 -0.76749273 127.19730691 -1.55690002 125.32595825 C-2.48008633 123.2149122 -3.46566264 121.12973908 -4.5196991 119.08088684 C-10.20063483 107.10049079 -9.74400321 95.47843696 -9.56005859 82.43286133 C-9.54884564 80.07776478 -9.5403154 77.72265409 -9.53433228 75.36753845 C-9.51159954 69.21717592 -9.45281167 63.06768539 -9.3861084 56.91766357 C-9.3243483 50.62271922 -9.29724562 44.32763175 -9.26708984 38.0324707 C-9.20305233 25.71633575 -9.10086373 13.40084338 -8.97412109 1.08520508 C-5.72684207 0.00277874 -3.41500099 -0.02493662 0 0 Z M-74.97412109 53.08520508 C-75.42851562 54.4097168 -75.42851562 54.4097168 -75.89208984 55.76098633 C-77.85606328 61.38701486 -79.81372111 66.93589813 -82.34912109 72.33520508 C-86.4731748 81.12799884 -89.77253714 90.28354672 -93.21630859 99.35864258 C-96.34422068 107.57750124 -99.66630636 115.71076374 -103.02832031 123.83618164 C-103.40875488 124.75882812 -103.78918945 125.68147461 -104.18115234 126.63208008 C-104.52637939 127.46578125 -104.87160645 128.29948242 -105.22729492 129.15844727 C-106.03435582 130.89620086 -106.03435582 130.89620086 -105.97412109 132.08520508 C-85.18412109 132.08520508 -64.39412109 132.08520508 -42.97412109 132.08520508 C-41.67440465 128.18605573 -42.58436367 126.85849304 -44.09912109 123.08520508 C-44.56705078 121.91731445 -45.03498047 120.74942383 -45.51708984 119.54614258 C-47.15100804 115.6650393 -48.88657627 111.84259016 -50.65771484 108.02270508 C-54.28134619 99.9367384 -57.39832734 91.61872653 -60.53662109 83.33520508 C-62.42372407 78.38760817 -64.54107223 73.59890784 -66.77490234 68.80004883 C-68.43865174 65.03358033 -69.81730087 61.18481039 -71.17724609 57.30004883 C-71.92484413 55.08542251 -71.92484413 55.08542251 -72.97412109 53.08520508 C-73.63412109 53.08520508 -74.29412109 53.08520508 -74.97412109 53.08520508 Z " fill="#F5F5F5" transform="translate(265.97412109375,131.914794921875)"/>
<path d="M0 0 C0.33 0 0.66 0 1 0 C2.20263212 4.71131124 2.13389735 9.27906319 2.11352539 14.10473633 C2.11367142 15.01254852 2.11381744 15.92036072 2.1139679 16.85568237 C2.11327281 19.84782321 2.10549931 22.83990132 2.09765625 25.83203125 C2.09579064 27.90996771 2.09436741 29.98790462 2.09336853 32.06584167 C2.08955465 37.52877013 2.07973399 42.99167191 2.06866455 48.45458984 C2.05842616 54.03157185 2.05386571 59.60855818 2.04882812 65.18554688 C2.03811072 76.12370963 2.02104784 87.06185259 2 98 C-1.16115776 96.63016497 -1.9927092 96.0109362 -4 93 C-3.625 90.8125 -3.625 90.8125 -3 89 C-2.34 90.32 -1.68 91.64 -1 93 C-0.67 62.31 -0.34 31.62 0 0 Z " fill="#8C8A89" transform="translate(291,220)"/>
<path d="M0 0 C0.33 1.32 0.66 2.64 1 4 C12.22 4.33 23.44 4.66 35 5 C34.67 5.66 34.34 6.32 34 7 C22.45 7 10.9 7 -1 7 C-2 4 -2 4 -1.0625 1.8125 C-0.5365625 0.9153125 -0.5365625 0.9153125 0 0 Z " fill="#6C6A6B" transform="translate(86,354)"/>
<path d="M0 0 C0.99 0.33 1.98 0.66 3 1 C2.01 4.3 1.02 7.6 0 11 C-0.33 11 -0.66 11 -1 11 C-2.25 3.375 -2.25 3.375 0 0 Z " fill="#C2C1BF" transform="translate(187,188)"/>
<path d="M0 0 C2.625 0.375 2.625 0.375 5 1 C3.66666667 3.66666667 2.33333333 6.33333333 1 9 C0.01 6.69 -0.98 4.38 -2 2 C-1.34 1.34 -0.68 0.68 0 0 Z " fill="#D4D2D1" transform="translate(195,185)"/>
<path d="M0 0 C0.33 0.66 0.66 1.32 1 2 C-3.33664919 5.11696661 -6.80408388 5.55966813 -12 6 C-9.71540242 3.71540242 -7.87462656 3.02870252 -4.875 1.875 C-3.96492188 1.52179688 -3.05484375 1.16859375 -2.1171875 0.8046875 C-1.06917969 0.40636719 -1.06917969 0.40636719 0 0 Z " fill="#9A9899" transform="translate(346,318)"/>
<path d="M0 0 C1.25955231 3.77865693 0.48087189 5.03411786 -0.9375 8.6875 C-1.31777344 9.68136719 -1.69804687 10.67523438 -2.08984375 11.69921875 C-2.39019531 12.45847656 -2.69054687 13.21773438 -3 14 C-4.15941038 10.52176885 -3.70820884 8.54104422 -3 5 C-2.34 5 -1.68 5 -1 5 C-0.67 3.35 -0.34 1.7 0 0 Z " fill="#A6A3A5" transform="translate(413,284)"/>
<path d="M0 0 C2.18975773 3.28463659 2.99806563 6.20696275 4 10 C3.34 9.67 2.68 9.34 2 9 C2 8.34 2 7.68 2 7 C1.01 6.67 0.02 6.34 -1 6 C-0.67 4.02 -0.34 2.04 0 0 Z M-2 7 C-1.01 7.495 -1.01 7.495 0 8 C-0.99 8.495 -0.99 8.495 -2 9 C-2 8.34 -2 7.68 -2 7 Z " fill="#A7A5A5" transform="translate(243,218)"/>
<path d="M0 0 C2.18975773 3.28463659 2.99806563 6.20696275 4 10 C3.566875 9.525625 3.13375 9.05125 2.6875 8.5625 C0.97690387 6.76313043 0.97690387 6.76313043 -2 6 C-1.34 4.02 -0.68 2.04 0 0 Z " fill="#C3C1BF" transform="translate(229,184)"/>
<path d="M0 0 C2.18975773 3.28463659 2.99806563 6.20696275 4 10 C3.01 10 2.02 10 1 10 C0.34 9.34 -0.32 8.68 -1 8 C-0.625 6.125 -0.625 6.125 0 4 C0 2.68 0 1.36 0 0 Z " fill="#C2BFBD" transform="translate(225,174)"/>
<path d="M0 0 C1.5625 1.8125 1.5625 1.8125 3 4 C2.67 4.99 2.34 5.98 2 7 C1.34 7 0.68 7 0 7 C-0.33 7.66 -0.66 8.32 -1 9 C-1.66 8.67 -2.32 8.34 -3 8 C-2.01 5.36 -1.02 2.72 0 0 Z " fill="#A9A7A5" transform="translate(115,281)"/>
<path d="M0 0 C0.66 0 1.32 0 2 0 C1.71872579 1.48117801 1.42466268 2.95993249 1.125 4.4375 C0.96257812 5.26121094 0.80015625 6.08492187 0.6328125 6.93359375 C0.31957031 7.95646484 0.31957031 7.95646484 0 9 C-0.99 9.495 -0.99 9.495 -2 10 C-2.17942163 6.05272412 -2.09350689 3.4019487 0 0 Z " fill="#A7A3A2" transform="translate(174,223)"/>
</svg>
